<svg xmlns="http://www.w3.org/2000/svg" viewBox="0 0 500 500"><g id="freepik--Floor--inject-61"><ellipse id="freepik--floor--inject-61" cx="250" cy="342.04" rx="243.72" ry="140.71" style="fill:#f5f5f5"></ellipse></g><g id="freepik--Shadows--inject-61"><path id="freepik--Shadow--inject-61" d="M469,366.31,233.25,230.07v3.22L467.59,368.73a6.05,6.05,0,0,1,0,10.49l-2.46,1.42a9.33,9.33,0,0,0-2.74-2.56,3.52,3.52,0,0,0-3.55-.35l-23.08,13.49a3.52,3.52,0,0,0-1.49,3.27,9.42,9.42,0,0,0,.77,3.5l-2.37,1.36-.25.14-.27.17-5.1,2.94A69.54,69.54,0,0,1,373,407.46c-20-6.32-52.83-21-70.84-40.69a16.08,16.08,0,0,0,7.29-10.42c2-9.93,2.68-25.61-10.63-33.29L262,301.85a5.39,5.39,0,0,0,.87-3.8c-.18-1.18-1-4-5.29-5a14,14,0,0,0-3.18-.35,13.87,13.87,0,0,0-2.06.15l-3.58.5-18-10.39-1.4.81C207,271.51,178,264.8,147.18,264.8c-31.95,0-62.06,7.23-84.78,20.35-23.58,13.62-36.57,32-36.58,51.82,0,17.7,10.37,34.28,29.4,47.33l-1.64.94,20.73,12A7,7,0,0,0,84.67,405l7.45-4.3c5.43,2.47,50.4,22.79,68.51,25.55,19.3,2.93,28.44-2.35,28.44-2.35l4.67-2.87c25.08,13.37,67.39,31.46,112.61,31.46,23.93,0,48.67-5.07,72.09-18.59L428,405.26c1.89-1,3.74-2.05,5.57-3.21l.63-.36,2.21-1.21a9.74,9.74,0,0,0,2.88,2.72,3.53,3.53,0,0,0,3.56.35L466,390.06a3.52,3.52,0,0,0,1.49-3.27,7.23,7.23,0,0,0-.08-1c0-.14,0-.27-.07-.42s-.07-.3-.11-.46a10.1,10.1,0,0,0-.63-1.85l2.44-1.41a8.84,8.84,0,0,0,0-15.32ZM377,431.47c-65.66,37.91-142.16,8-180.54-12.15l1.82-1.12a7.41,7.41,0,0,0-.08-12.68L171,389.26a31.54,31.54,0,0,0-34.3,1.27L116,405.12l-18.88-7.3,7.55-4.36-30.13-17.4-3.67-2c-18.07-10.45-28-23.63-28-37.1s10-26.68,28.1-37.13c20.26-11.71,47.35-18.15,76.28-18.15,27.14,0,53,5.76,72.81,16.23L245,312.39l11.55-6.66,23.88,13.79-22.34,12.9h0a16.25,16.25,0,0,0,0,28.14l17.66,10.19a16.2,16.2,0,0,0,14,1.09l9.61-3.7.22-.09c18.33,20.39,51.8,35.53,72.56,42.06a74.1,74.1,0,0,0,22.35,3.49,71.34,71.34,0,0,0,17.16-2.1Z" style="fill:#e0e0e0"></path><path id="freepik--shadow--inject-61" d="M131.93,278.63l-36,20.8c-2.39,1.38-2.39,3.62,0,5L201,365.1a9.57,9.57,0,0,0,8.66,0l36-20.8c2.39-1.38,2.39-3.62,0-5L140.59,278.63A9.57,9.57,0,0,0,131.93,278.63Z" style="fill:#e0e0e0"></path><path id="freepik--shadow--inject-61" d="M455.16,288.51l-101-58.3a10.58,10.58,0,0,0-5.25-1.36A9.28,9.28,0,0,0,344.3,230l-61.8,35.68c-.18.1-.34.2-.5.31l-.22.15-.19.16-.31.27a7.66,7.66,0,0,0-.57.57,6.27,6.27,0,0,0-1.3,2.33,5.94,5.94,0,0,0-.27,1.77,7,7,0,0,0,3.7,5.93l101,58.29a10.65,10.65,0,0,0,5.26,1.36,9.23,9.23,0,0,0,4.62-1.15L455.56,300a6.46,6.46,0,0,0,3.3-5.53A7,7,0,0,0,455.16,288.51Z" style="fill:#e0e0e0"></path></g><g id="freepik--device-1--inject-61"><g id="freepik--Headphones--inject-61"><path d="M473.41,366.05A8.73,8.73,0,0,1,469,373.7l-14.61,8.44-1.4-2.42,14.63-8.43a6.05,6.05,0,0,0,0-10.49L238.92,228.64V227l-5.67-3.26v-1.6L469,358.38A8.79,8.79,0,0,1,473.41,366.05Z" style="fill:#37474f"></path><path d="M200.7,176.1V120l-2.78-1.6v59.27a47.2,47.2,0,0,0,23.58,40.86L297,262.13l1-2.58L224.28,217A47.21,47.21,0,0,1,200.7,176.1Z" style="fill:#37474f"></path><path d="M229.45,268.27C184,242,110.34,242,64.9,268.27c-22.69,13.1-34.05,30.26-34.07,47.44,0,3.28,0,16.33,0,19.59,0,17.2,11.35,34.4,34.07,47.53l7.09-4.1V359.17l-3.61-1.93c-15.48-8.95-25.48-19.95-29.07-31.69,3.59-11.75,13.59-22.76,29.07-31.69,42.28-24.42,110.35-25.08,154-2l7-4.06Z" style="fill:#F94892"></path><path d="M229.45,268.27C184,242,110.34,242,64.9,268.27c-22.69,13.1-34.05,30.26-34.07,47.44,0,3.28,0,16.33,0,19.59,0,17.2,11.35,34.4,34.07,47.53l7.09-4.1V359.17l-3.61-1.93c-15.48-8.95-25.48-19.95-29.07-31.69,3.59-11.75,13.59-22.76,29.07-31.69,42.28-24.42,110.35-25.08,154-2l7-4.06Z" style="opacity:0.15"></path><path d="M64.9,268.27c-45.44,26.23-45.44,68.76,0,95l7.09-4.1-3.61-1.93c-19.72-11.4-30.59-26.12-30.59-41.47s10.87-30.09,30.59-41.47c42.28-24.42,110.35-25.07,154-2l7-4.07C184,242,110.34,242,64.9,268.27Z" style="fill:#F94892"></path><polygon points="64.9 363.27 71.99 359.17 71.99 378.73 64.9 382.83 64.9 363.27" style="opacity:0.15"></polygon><polygon points="222.4 272.34 229.45 268.27 229.45 287.83 222.4 291.89 222.4 272.34" style="opacity:0.15"></polygon><polygon points="71.99 359.17 63.58 364.03 86.22 377.1 94.62 372.24 71.99 359.17" style="fill:#455a64"></polygon><polygon points="63.58 383.63 63.58 364.03 86.22 377.1 86.22 396.7 63.58 383.63" style="fill:#37474f"></polygon><polygon points="94.62 372.24 94.62 391.84 86.22 396.7 86.21 377.1 94.62 372.24" style="fill:#263238"></polygon><path d="M80.56,373.83l-1.29,3.05a2,2,0,0,0-.14.84h0v19.5h0a2,2,0,0,0,3,1.81l4-2.33V377.1Z" style="fill:#263238"></path><path d="M86.21,377.1l-4,2.33a2,2,0,0,1-2.69-.59h0a2,2,0,0,1-.21-2l1.29-3.05Z" style="fill:#455a64"></path><polygon points="92.3 375.51 92.3 391.26 88.54 393.43 88.54 377.68 92.3 375.51"></polygon><path d="M258,277.5h0c-.1-.32-.6-.63-1.46-.84a9.85,9.85,0,0,0-3.4-.12l-5.28.74V297.1h.38l5.28,3,4-2.34c.39-.22.52-.47.44-.71h0Z" style="fill:#263238"></path><polygon points="230.81 267.48 222.4 272.34 245.03 285.4 253.44 280.55 230.81 267.48" style="fill:#455a64"></polygon><polygon points="222.4 291.94 222.4 272.34 245.03 285.4 245.03 305 222.4 291.94" style="fill:#37474f"></polygon><polygon points="253.44 280.55 253.44 300.15 245.03 305 245.03 285.4 253.44 280.55" style="fill:#263238"></polygon><path d="M253.44,280.55l4.05-2.34c.92-.53.47-1.2-1-1.55h0a9.85,9.85,0,0,0-3.4-.12l-5.28.74Z" style="fill:#455a64"></path><polygon points="252.22 283.19 252.22 298.93 248.47 301.1 248.47 285.35 252.22 283.19"></polygon><polygon points="89.55 378.77 89.55 389.84 118.96 400.5 118.96 389.44 89.55 378.77" style="fill:#ebebeb"></polygon><polygon points="250.4 286.31 250.4 297.38 273.72 324.5 273.72 313.44 250.4 286.31" style="fill:#e0e0e0"></polygon><path d="M63.58,368.21A149.13,149.13,0,0,1,38,353.14V364.2a148.48,148.48,0,0,0,25.54,15.07h0Z" style="fill:#ebebeb"></path><path d="M198,384.85c-4.34-16.19-21-32.9-37.24-37.24a24.67,24.67,0,0,0-12.83-.41,14.72,14.72,0,0,0-6.8,3.84c-1,1-10.55,10.52-11.6,11.59-4.25,4.3-5.59,11.31-3.37,19.58,4.34,16.19,21,32.9,37.24,37.24a24.79,24.79,0,0,0,12.83.42A14.84,14.84,0,0,0,183,416c1-1,10.48-10.46,11.53-11.51C198.82,400.18,200.17,393.15,198,384.85Z" style="fill:#F94892"></path><path d="M176.18,419.87a24.79,24.79,0,0,1-12.83-.42c-16.19-4.34-32.9-21.05-37.24-37.24-3.15-11.74.86-20.95,10.21-23.45a24.67,24.67,0,0,1,12.83.41c16.19,4.34,32.9,21.05,37.24,37.24C189.54,408.16,185.53,417.36,176.18,419.87Z" style="opacity:0.15"></path><path d="M148.52,369.41c-12.12-3.24-19.16,3.65-16,15.79l.06.23a3.44,3.44,0,0,1-4.67,4.06l-12.58-5.39-4.58,4.58,7.5,6.32s24.48,13.58,41.94,18c.48.13.95.23,1.41.33a14.53,14.53,0,0,0,4.08.44c8.6,0,13.16-6.65,10.46-16.72C172.92,385,160.55,372.64,148.52,369.41Z" style="fill:#fafafa"></path><path d="M148.73,369.2c-6.09-1.63-10.92-.61-13.8,2.37-1.24,1.28-3.3,3.34-4.58,4.58-3,2.87-4,7.71-2.37,13.8l0,.07a3.41,3.41,0,0,1-4.62,4.08l-12.64-5.42,2.92,10.91s24.48,13.57,41.94,18c.48.13.94.24,1.4.33a14.34,14.34,0,0,0,4.1.44c4.14,0,7.34-1.55,9.24-4.28a11,11,0,0,1,2.64-2.59c3.73-2.71,5.17-7.91,3.37-14.64C173.13,384.79,160.77,372.42,148.73,369.2Z" style="fill:#fafafa"></path><path d="M143.93,374c-12.11-3.25-19.16,3.64-16,15.78l.06.23a3.43,3.43,0,0,1-4.67,4.06l-12.58-5.39,2.92,10.91s24.48,13.57,41.94,18c.48.13.94.24,1.41.33a14.1,14.1,0,0,0,4.07.44c8.61,0,13.17-6.65,10.47-16.72C168.34,389.59,156,377.22,143.93,374Z" style="fill:#ebebeb"></path><path d="M166.43,401.91c-2.67-10-12.89-20.17-22.84-22.84-5-1.33-9-.52-11.34,1.89l-1.95,1.94c-2.4,2.39-3.22,6.36-1.88,11.34,2.66,9.95,12.89,20.18,22.83,22.84,5,1.34,8.95.52,11.34-1.88l2-2C167,410.84,167.76,406.88,166.43,401.91Z" style="fill:#fafafa"></path><path d="M141.6,381.06c10,2.66,20.17,12.89,22.84,22.84s-3.24,15.85-13.19,13.18-20.17-12.89-22.83-22.84S131.65,378.39,141.6,381.06Z" style="fill:#f0f0f0"></path><path d="M314.65,334c2.66-9.95-1.08-23.92-8.36-31.2-3.65-3.65-7.5-4.93-10.77-4l-2.65.71c-3.27.87-6,3.9-7.31,8.88-2.66,9.95,1.08,23.92,8.36,31.2,3.65,3.65,7.5,4.93,10.76,4l2.7-.72C310.64,342,313.32,339,314.65,334Z" style="fill:#e0e0e0"></path><path d="M303.58,303.56c7.28,7.28,11,21.25,8.35,31.19s-10.72,12.11-18,4.83-11-21.25-8.36-31.2S296.29,296.28,303.58,303.56Z" style="fill:#f0f0f0"></path><path d="M302.66,300.27c-8.87-8.87-18.42-6.42-21.74,5.68l-.06.22a3.45,3.45,0,0,1-6.09,1.19l-8.19-11-6.26,1.68,3.34,9.23s14.41,24,27.32,36.55c.35.35.7.67,1.06,1a14.48,14.48,0,0,0,3.31,2.42c7.46,4.29,14.72.82,17.42-9.25C316,326,311.47,309.08,302.66,300.27Z" style="fill:#fafafa"></path><path d="M303,300.2c-4.46-4.46-9.16-6-13.13-4.85-1.72.49-4.53,1.24-6.26,1.67-4,1-7.32,4.68-8.95,10.77l0,.07a3.4,3.4,0,0,1-6,1.23l-8.24-11L257.39,309s14.41,24,27.33,36.55c.35.35.7.67,1,1a14.42,14.42,0,0,0,3.33,2.43c3.59,2.06,7.14,2.33,10.15.91a11.26,11.26,0,0,1,3.57-.92c4.59-.48,8.44-4.26,10.24-11C316.29,325.9,311.76,309,303,300.2Z" style="fill:#fafafa"></path><path d="M296.4,302c-8.87-8.87-18.42-6.42-21.74,5.67a1.55,1.55,0,0,1-.07.23,3.44,3.44,0,0,1-6.08,1.18l-8.19-11L257.39,309s14.41,24,27.33,36.55c.35.35.7.67,1.06,1a13.69,13.69,0,0,0,3.31,2.42c7.46,4.29,14.72.82,17.42-9.24C309.74,327.66,305.21,310.76,296.4,302Z" style="fill:#ebebeb"></path><g id="freepik--Plug--inject-61"><path d="M313.6,332.28a2.61,2.61,0,0,0-2.41-1.09,8.21,8.21,0,0,0-6.45,3.72,2.58,2.58,0,0,0-.25,2.64l3,5.26,9.11-5.28Z" style="fill:#37474f"></path><path d="M306.26,333.18a6.64,6.64,0,0,0-1.52,1.73,2.58,2.58,0,0,0-.25,2.64l3,5.26,3.22-1.86Z" style="opacity:0.1"></path><path d="M307.79,340.18a8.22,8.22,0,0,1,6.44-3.72,2.27,2.27,0,0,1,2.15,3.72,8.21,8.21,0,0,1-6.45,3.72,2.26,2.26,0,0,1-2.14-3.72Z" style="fill:#455a64"></path><path d="M315.88,338.83a2,2,0,0,0-1.82-.82,6.19,6.19,0,0,0-4.86,2.8,2,2,0,0,0-.19,2l2.11,3.65,6.87-4Z" style="fill:#37474f"></path><path d="M310.34,339.51a5.13,5.13,0,0,0-1.14,1.3,2,2,0,0,0-.19,2l2.11,3.65,2.43-1.4Z" style="opacity:0.1"></path><path d="M311.32,344.48a6.2,6.2,0,0,1,4.86-2.81,2,2,0,0,1,1.81.81,2,2,0,0,1-.19,2,6.21,6.21,0,0,1-4.86,2.81,1.71,1.71,0,0,1-1.62-2.81Z" style="fill:#455a64"></path></g><path d="M310.76,345.61c4.34-16.2-1.78-39-13.63-50.88a24.75,24.75,0,0,0-10.9-6.77,14.84,14.84,0,0,0-7.82-.07c-1.41.39-14.39,3.84-15.84,4.24-5.83,1.6-10.49,7-12.7,15.27-4.34,16.19,1.77,39,13.63,50.87A24.75,24.75,0,0,0,274.4,365a14.78,14.78,0,0,0,7.86.06c1.4-.39,14.3-3.82,15.74-4.21C303.85,359.31,308.54,353.9,310.76,345.61Z" style="fill:#F94892"></path><path d="M274.4,365a24.75,24.75,0,0,1-10.9-6.77c-11.86-11.86-18-34.68-13.63-50.87,3.14-11.75,11.22-17.71,20.57-15.21a24.8,24.8,0,0,1,10.9,6.77c11.85,11.86,18,34.68,13.63,50.88C291.82,361.58,283.75,367.55,274.4,365Z" style="opacity:0.15"></path><g id="freepik--plug--inject-61"><path d="M176.21,398.79a2.61,2.61,0,0,0-2.47.93,8.24,8.24,0,0,0-1.93,7.19,2.59,2.59,0,0,0,1.7,2l5.86,1.57,2.7-10.17Z" style="fill:#37474f"></path><path d="M171.66,404.61a6.69,6.69,0,0,0,.15,2.3,2.59,2.59,0,0,0,1.7,2l5.86,1.57,1-3.59Z" style="opacity:0.1"></path><path d="M177.69,408.49a8.24,8.24,0,0,1,1.93-7.19,2.63,2.63,0,0,1,2.45-.94,2.58,2.58,0,0,1,1.7,2.05,8.21,8.21,0,0,1-1.93,7.19,2.27,2.27,0,0,1-4.15-1.11Z" style="fill:#455a64"></path><path d="M182.46,401.81a2,2,0,0,0-1.87.7,6.24,6.24,0,0,0-1.45,5.42,2,2,0,0,0,1.28,1.55l4.07,1.09,2-7.67Z" style="fill:#37474f"></path><path d="M179,406.2a5.15,5.15,0,0,0,.12,1.73,2,2,0,0,0,1.28,1.55l4.07,1.09.72-2.71Z" style="opacity:0.1"></path><path d="M183.23,409a6.22,6.22,0,0,1,1.45-5.42,2,2,0,0,1,1.85-.71,2,2,0,0,1,1.28,1.55,6.17,6.17,0,0,1-1.45,5.42,1.71,1.71,0,0,1-3.13-.84Z" style="fill:#455a64"></path></g><path d="M306.35,444.54c-51.12,0-98.54-23.13-121.53-36.4l1.4-2.41C219.55,425,304.85,465.22,377,423.54c49.37-28.5,63.6-36.71,73.32-42.31l2.62-1.51,1.39,2.41-2.62,1.52c-9.71,5.6-23.95,13.8-73.31,42.3C355,439.47,330.28,444.54,306.35,444.54Z" style="fill:#37474f"></path><path d="M458.86,369.8a3.52,3.52,0,0,1,3.55.35,11.1,11.1,0,0,1,5,8.71,3.52,3.52,0,0,1-1.49,3.27l-23.08,13.49-7.09-12.33Z" style="fill:#37474f"></path><path d="M466.84,375.81a9.12,9.12,0,0,1,.6,3.05,3.52,3.52,0,0,1-1.49,3.27l-23.08,13.49L440.24,391Z" style="opacity:0.1"></path><path d="M444.34,392.36a11.13,11.13,0,0,0-5-8.71,3.06,3.06,0,0,0-5,2.91,11.15,11.15,0,0,0,5,8.71,3.07,3.07,0,0,0,5-2.91Z" style="fill:#455a64"></path><path d="M440.18,390a2.16,2.16,0,0,0-1-1.71.68.68,0,0,0-.69-.07h0l-6.07,3.32a69.69,69.69,0,0,1-59.47,8c-25-7.86-45.8-28.12-57.12-55.58L313.27,345c11.63,28.23,33.09,49.07,58.86,57.18a74.1,74.1,0,0,0,22.35,3.49A72.68,72.68,0,0,0,433.86,394l6-3.28h0l.06,0A.68.68,0,0,0,440.18,390Z" style="fill:#37474f"></path></g></g><g id="freepik--device-2--inject-61"><g id="freepik--cassette-player--inject-61"><path d="M106.14,101.11,134.06,85a6.67,6.67,0,0,1,6,0l90.16,52.06a6.67,6.67,0,0,1,3,5.22v81.47l5.67,3.26V334.58a6.67,6.67,0,0,1-3,5.22L208,355.92a6.67,6.67,0,0,1-6,0L106.14,300.6a6.65,6.65,0,0,1-3-5.22v-189A6.66,6.66,0,0,1,106.14,101.11Z" style="fill:#263238"></path><path d="M140.09,85l90.16,52.06c1.66,1,1.66,2.52,0,3.48l-12.42,7.17,5.66,3.27L208,159.91a6.61,6.61,0,0,1-6,0L106.14,104.6c-1.67-1-1.67-2.53,0-3.49L134.06,85A6.67,6.67,0,0,1,140.09,85Z" style="fill:#455a64"></path><path d="M103.12,295.38v-189c0-1.93,1.35-2.71,3-1.74L202,159.91a6.7,6.7,0,0,1,3,5.23v189c0,1.92-1.35,2.7-3,1.74L106.14,300.6A6.65,6.65,0,0,1,103.12,295.38Z" style="fill:#37474f"></path><polygon points="103.12 128.99 182.34 174.72 182.34 177.99 103.12 132.25 103.12 128.99" style="fill:#263238"></polygon><path d="M121.61,98.72l8.3-4.79a3.33,3.33,0,0,1,3,0l14,8.06a3.34,3.34,0,0,1,1.51,2.61v4.79l-11.32,6.53-17-9.8v-4.79A3.31,3.31,0,0,1,121.61,98.72Z" style="fill:#F94892"></path><path d="M121.61,98.72l8.3-4.79a3.33,3.33,0,0,1,3,0l14,8.06a.92.92,0,0,1,0,1.74l-8.3,4.79a3.35,3.35,0,0,1-3,0l-14-8.06A.92.92,0,0,1,121.61,98.72Z" style="fill:#fff;opacity:0.4"></path><path d="M137.07,111.13a3.31,3.31,0,0,0-1.51-2.61l-14-8.06c-.84-.48-1.51-.09-1.51.87v4.79l17,9.8Z" style="fill:#fff;opacity:0.2"></path><path d="M146.88,103.73l-8.3,4.79a3.34,3.34,0,0,0-1.51,2.61v4.79l11.32-6.53V104.6C148.39,103.64,147.71,103.25,146.88,103.73Z" style="fill:#263238;opacity:0.05"></path><path d="M154.05,119.19c-3.13,1.81-3.13,4.73,0,6.54a12.52,12.52,0,0,0,11.31,0c3.13-1.81,3.13-4.73,0-6.54A12.52,12.52,0,0,0,154.05,119.19Z" style="fill:#37474f"></path><path d="M159.71,125.69a10.31,10.31,0,0,1-5-1.17c-1-.6-1.64-1.36-1.64-2.06s.6-1.46,1.64-2.06a11.12,11.12,0,0,1,9.93,0c1,.6,1.64,1.35,1.64,2.06s-.6,1.46-1.64,2.06a10.27,10.27,0,0,1-5,1.17Z" style="fill:#263238"></path><path d="M154.81,124.55a11.1,11.1,0,0,0,9.8,0,11.1,11.1,0,0,0-9.8,0Z"></path><path d="M171,129c-3.12,1.81-3.12,4.73,0,6.54a12.54,12.54,0,0,0,11.32,0c3.12-1.81,3.12-4.73,0-6.54A12.54,12.54,0,0,0,171,129Z" style="fill:#37474f"></path><path d="M176.68,135.49a10.24,10.24,0,0,1-5-1.17c-1.05-.6-1.65-1.35-1.65-2.06s.6-1.46,1.65-2.06a11.1,11.1,0,0,1,9.92,0c1.05.6,1.65,1.35,1.65,2.06s-.6,1.46-1.65,2.06a10.24,10.24,0,0,1-5,1.17Z" style="fill:#263238"></path><path d="M171.78,134.35a11.1,11.1,0,0,0,9.8,0,11.1,11.1,0,0,0-9.8,0Z"></path><path d="M238.92,334.58V227l-5.67-3.26V142.27a6.67,6.67,0,0,0-3-5.22l-14-8.06-31,17.87a6.67,6.67,0,0,0-3,5.22l0,192.52L202,355.92a6.67,6.67,0,0,0,6,0l27.92-16.12A6.67,6.67,0,0,0,238.92,334.58Z" style="fill:#e0e0e0"></path><polygon points="233.25 223.74 223.49 229.37 223.49 235.9 238.91 227 233.25 223.74" style="opacity:0.2"></polygon><path d="M233.26,142.27v81.47l-15.42,8.9V147.7l12.41-7.16C231.91,139.58,233.26,140.35,233.26,142.27Z" style="fill:#455a64"></path><path d="M229,145.62a.83.83,0,0,0-.86.08L222.5,149a2.68,2.68,0,0,0-1.2,2.09v5.86a.83.83,0,0,0,.35.78l5.66,3.26a.85.85,0,0,0,.86-.08l5.65-3.27a2.67,2.67,0,0,0,1.2-2.09v-5.86a.85.85,0,0,0-.35-.78Z" style="fill:#f0f0f0"></path><path d="M234.67,148.87a.94.94,0,0,0-.85.08l-5.66,3.27a2.49,2.49,0,0,0-.93,1.06L221.59,150a2.34,2.34,0,0,1,.92-1.06l5.64-3.26a.83.83,0,0,1,.86-.08C229.21,145.75,234.11,148.55,234.67,148.87Z" style="fill:#fafafa"></path><path d="M233.82,157.6l-5.65,3.27c-.67.38-1.21.07-1.21-.7v-5.86a2.65,2.65,0,0,1,1.21-2.09l5.65-3.26c.66-.39,1.2-.08,1.2.69v5.86A2.67,2.67,0,0,1,233.82,157.6Z" style="fill:#e6e6e6"></path><g style="opacity:0.2"><path d="M228.17,160a.18.18,0,0,1-.09-.33l5.65-3.26a.17.17,0,0,1,.24.07.17.17,0,0,1-.07.23L228.25,160Z"></path><path d="M228.17,159a.19.19,0,0,1-.16-.09.18.18,0,0,1,.07-.23l5.65-3.27a.18.18,0,1,1,.17.31l-5.65,3.26Z"></path><path d="M228.17,157.86a.21.21,0,0,1-.16-.08.19.19,0,0,1,.07-.24l5.65-3.26a.18.18,0,0,1,.24.06.18.18,0,0,1-.07.24l-5.65,3.26A.11.11,0,0,1,228.17,157.86Z"></path><path d="M228.17,156.78a.22.22,0,0,1-.16-.09.19.19,0,0,1,.07-.24l5.65-3.26a.17.17,0,1,1,.17.3l-5.65,3.26A.11.11,0,0,1,228.17,156.78Z"></path></g><path d="M229,161.69a.83.83,0,0,0-.86.08L222.5,165a2.67,2.67,0,0,0-1.2,2.09V173a.85.85,0,0,0,.35.78l5.66,3.26a.86.86,0,0,0,.86-.09l5.65-3.26a2.67,2.67,0,0,0,1.2-2.09v-5.86a.85.85,0,0,0-.35-.78Z" style="fill:#f0f0f0"></path><path d="M234.67,164.94a.94.94,0,0,0-.85.08l-5.66,3.27a2.43,2.43,0,0,0-.93,1.06l-5.64-3.26a2.34,2.34,0,0,1,.92-1.06l5.64-3.26a.83.83,0,0,1,.86-.08Z" style="fill:#fafafa"></path><path d="M233.82,173.67l-5.65,3.26c-.67.39-1.21.08-1.21-.69v-5.86a2.65,2.65,0,0,1,1.21-2.09l5.65-3.27c.66-.38,1.2-.07,1.2.7v5.86A2.67,2.67,0,0,1,233.82,173.67Z" style="fill:#e6e6e6"></path><g style="opacity:0.2"><path d="M228.17,176.11a.18.18,0,0,1-.09-.33l5.65-3.26a.17.17,0,1,1,.17.3l-5.65,3.26A.11.11,0,0,1,228.17,176.11Z"></path><path d="M228.17,175a.18.18,0,0,1-.09-.33l5.65-3.26a.17.17,0,0,1,.24.07.17.17,0,0,1-.07.23L228.25,175Z"></path><path d="M228.17,173.93a.21.21,0,0,1-.16-.08.19.19,0,0,1,.07-.24l5.65-3.27a.18.18,0,0,1,.17.31l-5.65,3.26Z"></path><path d="M228.17,172.84a.21.21,0,0,1-.16-.08.19.19,0,0,1,.07-.24l5.65-3.26a.18.18,0,0,1,.24.06.18.18,0,0,1-.07.24l-5.65,3.26A.11.11,0,0,1,228.17,172.84Z"></path></g><path d="M229,185.46a.84.84,0,0,0-.86.09l-5.65,3.26a2.67,2.67,0,0,0-1.2,2.09v29a.85.85,0,0,0,.35.78l5.66,3.26a.86.86,0,0,0,.86-.09l5.65-3.26a2.67,2.67,0,0,0,1.2-2.09v-29a.83.83,0,0,0-.35-.78Z" style="fill:#f0f0f0"></path><path d="M234.67,188.72a.94.94,0,0,0-.85.08l-5.66,3.27a2.43,2.43,0,0,0-.93,1.06l-5.64-3.26a2.29,2.29,0,0,1,.92-1.06l5.64-3.26a.83.83,0,0,1,.86-.08Z" style="fill:#fafafa"></path><path d="M233.82,220.6l-5.65,3.26c-.67.39-1.21.08-1.21-.69v-29a2.65,2.65,0,0,1,1.21-2.08l5.65-3.27c.66-.38,1.2-.07,1.2.7v29A2.67,2.67,0,0,1,233.82,220.6Z" style="fill:#e6e6e6"></path><g style="opacity:0.2"><path d="M228.17,223a.18.18,0,0,1-.09-.33l5.65-3.26a.17.17,0,1,1,.17.3L228.25,223A.11.11,0,0,1,228.17,223Z"></path><path d="M228.17,222a.18.18,0,0,1-.09-.33l5.65-3.26a.18.18,0,0,1,.24.07.17.17,0,0,1-.07.23l-5.65,3.27Z"></path><path d="M228.17,220.86a.21.21,0,0,1-.16-.08.19.19,0,0,1,.07-.24l5.65-3.27a.18.18,0,0,1,.17.31l-5.65,3.26Z"></path><path d="M228.17,219.77a.21.21,0,0,1-.16-.08.19.19,0,0,1,.07-.24l5.65-3.26a.18.18,0,0,1,.24.06.18.18,0,0,1-.07.24l-5.65,3.26A.11.11,0,0,1,228.17,219.77Z"></path></g><g style="opacity:0.2"><path d="M228.17,218.69a.18.18,0,0,1-.09-.33l5.65-3.26a.17.17,0,1,1,.17.3l-5.65,3.26A.11.11,0,0,1,228.17,218.69Z"></path><path d="M228.17,217.6a.18.18,0,0,1-.09-.33l5.65-3.26a.17.17,0,0,1,.24.07.17.17,0,0,1-.07.23l-5.65,3.27Z"></path><path d="M228.17,216.51a.19.19,0,0,1-.16-.09.18.18,0,0,1,.07-.23l5.65-3.27a.18.18,0,0,1,.17.31l-5.65,3.26Z"></path><path d="M228.17,215.42a.21.21,0,0,1-.16-.08.19.19,0,0,1,.07-.24l5.65-3.26a.18.18,0,0,1,.24.06.18.18,0,0,1-.07.24l-5.65,3.26A.11.11,0,0,1,228.17,215.42Z"></path></g><g style="opacity:0.2"><path d="M228.17,214.34a.22.22,0,0,1-.16-.09.19.19,0,0,1,.07-.24l5.65-3.26a.17.17,0,1,1,.17.3l-5.65,3.26A.11.11,0,0,1,228.17,214.34Z"></path><path d="M228.17,213.25a.18.18,0,0,1-.09-.33l5.65-3.26a.17.17,0,1,1,.17.3l-5.65,3.26A.11.11,0,0,1,228.17,213.25Z"></path><path d="M228.17,212.16a.19.19,0,0,1-.16-.09.18.18,0,0,1,.07-.23l5.65-3.27a.18.18,0,0,1,.24.07.17.17,0,0,1-.07.23l-5.65,3.27Z"></path><path d="M228.17,211.07A.19.19,0,0,1,228,211a.18.18,0,0,1,.07-.23l5.65-3.27a.18.18,0,0,1,.17.31l-5.65,3.26Z"></path></g><g style="opacity:0.2"><path d="M228.17,210a.21.21,0,0,1-.16-.08.19.19,0,0,1,.07-.24l5.65-3.26a.18.18,0,0,1,.24.06.18.18,0,0,1-.07.24L228.25,210A.11.11,0,0,1,228.17,210Z"></path><path d="M228.17,208.9a.18.18,0,0,1-.09-.33l5.65-3.26a.17.17,0,1,1,.17.3l-5.65,3.26A.11.11,0,0,1,228.17,208.9Z"></path><path d="M228.17,207.81a.18.18,0,0,1-.09-.33l5.65-3.26a.17.17,0,0,1,.24.07.17.17,0,0,1-.07.23l-5.65,3.27Z"></path><path d="M228.17,206.72a.19.19,0,0,1-.16-.09.18.18,0,0,1,.07-.23l5.65-3.27a.18.18,0,0,1,.17.31l-5.65,3.26Z"></path></g><g style="opacity:0.2"><path d="M228.17,205.63a.21.21,0,0,1-.16-.08.19.19,0,0,1,.07-.24l5.65-3.26a.18.18,0,0,1,.24.06.18.18,0,0,1-.07.24l-5.65,3.26A.11.11,0,0,1,228.17,205.63Z"></path><path d="M228.17,204.55a.22.22,0,0,1-.16-.09.19.19,0,0,1,.07-.24l5.65-3.26a.17.17,0,1,1,.17.3l-5.65,3.26A.11.11,0,0,1,228.17,204.55Z"></path><path d="M228.17,203.46a.18.18,0,0,1-.09-.33l5.65-3.26a.17.17,0,1,1,.17.3l-5.65,3.26A.11.11,0,0,1,228.17,203.46Z"></path><path d="M228.17,202.37a.18.18,0,0,1-.09-.33l5.65-3.26a.18.18,0,0,1,.24.07.17.17,0,0,1-.07.23l-5.65,3.27Z"></path></g><g style="opacity:0.2"><path d="M228.17,201.28a.19.19,0,0,1-.16-.09.18.18,0,0,1,.07-.23l5.65-3.27a.18.18,0,0,1,.17.31l-5.65,3.26Z"></path><path d="M228.17,200.19a.21.21,0,0,1-.16-.08.19.19,0,0,1,.07-.24l5.65-3.26a.18.18,0,0,1,.24.06.18.18,0,0,1-.07.24l-5.65,3.26A.11.11,0,0,1,228.17,200.19Z"></path><path d="M228.17,199.11a.18.18,0,0,1-.09-.33l5.65-3.26a.17.17,0,1,1,.17.3l-5.65,3.26A.11.11,0,0,1,228.17,199.11Z"></path><path d="M228.17,198a.18.18,0,0,1-.09-.33l5.65-3.26a.17.17,0,0,1,.24.07.17.17,0,0,1-.07.23L228.25,198Z"></path></g><path d="M230.25,137.05l-14-8.06-33.95,19.6L202,159.91a6.61,6.61,0,0,0,6,0l15.5-8.94-5.66-3.27,12.42-7.17C231.91,139.57,231.91,138,230.25,137.05Z" style="fill:#fafafa"></path><path d="M182.34,344.6,202,355.92c1.66,1,3,.18,3-1.74v-189a6.7,6.7,0,0,0-3-5.23l-19.62-11.32Z" style="fill:#f0f0f0"></path><path d="M238.93,334.57a6.66,6.66,0,0,1-3,5.23L208,355.93c-1.67,1-3,.18-3-1.74v-189a6.66,6.66,0,0,1,3-5.23l15.5-8.95V235.9l15.42-8.9Z" style="fill:#e6e6e6"></path><path d="M208.47,177.23a1.1,1.1,0,0,1-.57-.15,1.38,1.38,0,0,1-.62-1.28v-9.58A3.67,3.67,0,0,1,209,163.3l7.09-4.09a1.4,1.4,0,0,1,1.41-.11,1.38,1.38,0,0,1,.62,1.28V170a3.69,3.69,0,0,1-1.68,2.92L209.32,177A1.76,1.76,0,0,1,208.47,177.23Zm.85-13.32a3,3,0,0,0-1.34,2.31v9.58a.59.59,0,0,0,1,.57l7.09-4.1a3,3,0,0,0,1.33-2.31v-9.58a.76.76,0,0,0-.26-.68.8.8,0,0,0-.72.11Z" style="fill:#e0e0e0"></path><g style="opacity:0.1"><path d="M208.47,177.23a1.1,1.1,0,0,1-.57-.15,1.38,1.38,0,0,1-.62-1.28v-9.58A3.67,3.67,0,0,1,209,163.3l7.09-4.09a1.4,1.4,0,0,1,1.41-.11,1.38,1.38,0,0,1,.62,1.28V170a3.69,3.69,0,0,1-1.68,2.92L209.32,177A1.76,1.76,0,0,1,208.47,177.23Zm.85-13.32a3,3,0,0,0-1.34,2.31v9.58a.59.59,0,0,0,1,.57l7.09-4.1a3,3,0,0,0,1.33-2.31v-9.58a.76.76,0,0,0-.26-.68.8.8,0,0,0-.72.11Z"></path></g><path d="M211,168.46a1.05,1.05,0,0,0-.44.84c0,.32.2.47.44.33a1.07,1.07,0,0,0,.44-.84C211.48,168.46,211.28,168.32,211,168.46Zm1.72,3.6a1.05,1.05,0,0,0-.44.84c0,.32.2.47.44.33a1.07,1.07,0,0,0,.44-.84C213.2,172.06,213,171.92,212.76,172.06Zm-1.72,1a1.07,1.07,0,0,0-.44.84c0,.33.2.47.44.33a1.05,1.05,0,0,0,.44-.84C211.48,173.06,211.28,172.91,211,173.05Zm0-6.89a1.05,1.05,0,0,0-.44.84c0,.32.2.47.44.33a1.07,1.07,0,0,0,.44-.84C211.48,166.17,211.28,166,211,166.16Zm-1.73-1.3a1.05,1.05,0,0,0-.44.84c0,.32.2.47.44.33a1,1,0,0,0,.44-.84C209.75,164.86,209.56,164.72,209.31,164.86Zm1.73-1a1.07,1.07,0,0,0-.44.84c0,.33.2.47.44.33a1.05,1.05,0,0,0,.44-.84C211.48,163.87,211.28,163.72,211,163.86Zm0,6.89a1.07,1.07,0,0,0-.44.84c0,.33.2.48.44.34a1.07,1.07,0,0,0,.44-.84C211.48,170.76,211.28,170.61,211,170.75Zm-1.73,3.3a1.05,1.05,0,0,0-.44.84c0,.32.2.47.44.33a1,1,0,0,0,.44-.84C209.75,174.05,209.56,173.91,209.31,174.05Zm6.9-12a1.07,1.07,0,0,0,.44-.84c0-.33-.2-.47-.44-.33a1.05,1.05,0,0,0-.44.84C215.77,162,216,162.19,216.21,162.05Zm-6.9,7.4a1.07,1.07,0,0,0-.44.84c0,.33.2.47.44.33a1,1,0,0,0,.44-.84C209.75,169.46,209.56,169.31,209.31,169.45Zm0,2.3a1.07,1.07,0,0,0-.44.84c0,.32.2.47.44.33a1,1,0,0,0,.44-.84C209.75,171.76,209.56,171.61,209.31,171.75Zm0-4.6a1.07,1.07,0,0,0-.44.84c0,.33.2.48.44.34a1,1,0,0,0,.44-.84C209.75,167.16,209.56,167,209.31,167.15Zm6.9-4a1.07,1.07,0,0,0-.44.84c0,.33.2.48.44.34a1.07,1.07,0,0,0,.44-.84C216.65,163.18,216.45,163,216.21,163.17Zm-1.73-1.3a1.07,1.07,0,0,0-.44.84c0,.33.2.47.44.33a1,1,0,0,0,.44-.84C214.92,161.88,214.73,161.73,214.48,161.87Zm1.73,8.2a1.05,1.05,0,0,0-.44.84c0,.32.2.47.44.33a1.07,1.07,0,0,0,.44-.84C216.65,170.07,216.45,169.93,216.21,170.07Zm-1.73-5.9a1.05,1.05,0,0,0-.44.84c0,.32.2.47.44.33a1,1,0,0,0,.44-.84C214.92,164.18,214.73,164,214.48,164.17Zm1.73,1.3a1.07,1.07,0,0,0-.44.84c0,.33.2.47.44.33a1.05,1.05,0,0,0,.44-.84C216.65,165.48,216.45,165.33,216.21,165.47Zm-1.73,1a1.05,1.05,0,0,0-.44.84c0,.32.2.47.44.33a1,1,0,0,0,.44-.84C214.92,166.47,214.73,166.33,214.48,166.47Zm1.73,1.3a1.07,1.07,0,0,0-.44.84c0,.32.2.47.44.33a1.05,1.05,0,0,0,.44-.84C216.65,167.78,216.45,167.63,216.21,167.77Zm-3.45-4.9a1.05,1.05,0,0,0-.44.84c0,.32.2.47.44.33a1.07,1.07,0,0,0,.44-.84C213.2,162.87,213,162.73,212.76,162.87Zm0,2.29a1.07,1.07,0,0,0-.44.84c0,.33.2.48.44.34a1.07,1.07,0,0,0,.44-.84C213.2,165.17,213,165,212.76,165.16Zm1.72,3.6a1.07,1.07,0,0,0-.44.84c0,.33.2.48.44.34a1,1,0,0,0,.44-.84C214.92,168.77,214.73,168.62,214.48,168.76Zm-1.72-1.3a1.07,1.07,0,0,0-.44.84c0,.33.2.47.44.33a1.05,1.05,0,0,0,.44-.84C213.2,167.47,213,167.32,212.76,167.46Zm0,2.3a1.07,1.07,0,0,0-.44.84c0,.32.2.47.44.33a1.05,1.05,0,0,0,.44-.84C213.2,169.77,213,169.62,212.76,169.76Zm1.72,1.3a1.07,1.07,0,0,0-.44.84c0,.33.2.47.44.33a1,1,0,0,0,.44-.84C214.92,171.07,214.73,170.92,214.48,171.06Z" style="opacity:0.2"></path><path d="M211.51,179.33,212,178l0-.07a.27.27,0,0,1,.07-.08l.17-.09h0a.08.08,0,0,1,0,.05v2.08a.19.19,0,0,1,0,.07l0,0-.2.12h0a.07.07,0,0,1,0,0v-1.26l-.32.9,0,.08-.06.06-.12.07h-.06l0,0-.32-.54v1.25a.12.12,0,0,1,0,.08.1.1,0,0,1,0,.05l-.2.11a0,0,0,0,1,0,0s0,0,0,0v-2.08a.11.11,0,0,1,0-.07l0-.05.17-.1s.05,0,.07,0l0,0Z" style="fill:#455a64"></path><path d="M212.74,179.72h-.05a.07.07,0,0,1,0-.05v-2.08a.17.17,0,0,1,0-.07s0,0,.05-.05l.2-.12h0s0,0,0,.05v2.08a.12.12,0,0,1,0,.08l0,.05Z" style="fill:#455a64"></path><path d="M214.42,178a.19.19,0,0,1,0-.08s0,0,.05-.05l.19-.11a0,0,0,0,1,0,0,.06.06,0,0,1,0,0,1.6,1.6,0,0,1-.05.29,1.44,1.44,0,0,1-.13.32,1.91,1.91,0,0,1-.22.3,1.61,1.61,0,0,1-.32.25.66.66,0,0,1-.3.1.3.3,0,0,1-.21-.05.46.46,0,0,1-.14-.21,1.3,1.3,0,0,1-.06-.32c0-.08,0-.17,0-.27s0-.19,0-.27a2.63,2.63,0,0,1,.06-.39,1.42,1.42,0,0,1,.14-.36,1.69,1.69,0,0,1,.21-.31,1.76,1.76,0,0,1,.3-.24.68.68,0,0,1,.32-.11.38.38,0,0,1,.22,0,.37.37,0,0,1,.13.17.86.86,0,0,1,.05.23.14.14,0,0,1,0,.07s0,0,0,.06l-.19.11a0,0,0,0,1-.05,0s0,0,0,0a.2.2,0,0,0,0-.11.23.23,0,0,0-.07-.07.23.23,0,0,0-.12,0,.52.52,0,0,0-.16.07.7.7,0,0,0-.17.13,1,1,0,0,0-.11.17,1.19,1.19,0,0,0-.08.2l0,.2v.54l0,.18a.31.31,0,0,0,.08.11.2.2,0,0,0,.11,0,.41.41,0,0,0,.17,0,.7.7,0,0,0,.16-.13.75.75,0,0,0,.12-.14,1.11,1.11,0,0,0,.07-.16A.74.74,0,0,0,214.42,178Z" style="fill:#455a64"></path><path d="M210.37,237.18a.77.77,0,0,1,.29-.1.41.41,0,0,1,.2,0,.3.3,0,0,1,.13.12.53.53,0,0,1,0,.17.12.12,0,0,1,0,.08.1.1,0,0,1,0,.05l-.17.1s-.05,0-.06,0,0,0,0,0a.15.15,0,0,0-.11-.08.34.34,0,0,0-.22.07l-.12.08-.1.11a.67.67,0,0,0-.06.12.28.28,0,0,0,0,.13.15.15,0,0,0,0,.1.08.08,0,0,0,.07,0l.15,0,.22-.06a.85.85,0,0,1,.25-.05.31.31,0,0,1,.17,0,.24.24,0,0,1,.1.12.69.69,0,0,1,0,.22.86.86,0,0,1-.05.3,1.85,1.85,0,0,1-.13.29,1.78,1.78,0,0,1-.22.26,1.29,1.29,0,0,1-.3.22.77.77,0,0,1-.25.11.41.41,0,0,1-.22,0,.31.31,0,0,1-.16-.11.44.44,0,0,1-.06-.22.1.1,0,0,1,0-.07.11.11,0,0,1,0,0l.17-.1a.11.11,0,0,1,.07,0l0,0,0,.06a.09.09,0,0,0,.07,0h.1a.48.48,0,0,0,.15-.07l.14-.09a.68.68,0,0,0,.12-.12.46.46,0,0,0,.08-.13.37.37,0,0,0,0-.14.13.13,0,0,0,0-.1.15.15,0,0,0-.1,0l-.17,0-.24.06-.21,0a.24.24,0,0,1-.15,0,.29.29,0,0,1-.08-.13.78.78,0,0,1,0-.24,1,1,0,0,1,0-.29,1.55,1.55,0,0,1,.14-.29,1.16,1.16,0,0,1,.2-.25A1.57,1.57,0,0,1,210.37,237.18Z" style="fill:#455a64"></path><path d="M212.46,236h0a.06.06,0,0,1,0,.05v.23a.25.25,0,0,1,0,.07l0,0-.43.25v1.76a.24.24,0,0,1,0,.08.12.12,0,0,1,0,.05l-.19.11h-.05a.06.06,0,0,1,0,0v-1.76l-.43.25a0,0,0,0,1-.05,0,.08.08,0,0,1,0,0v-.23a.19.19,0,0,1,0-.07l.05-.05Z" style="fill:#455a64"></path><path d="M212.68,236.72a1.64,1.64,0,0,1,0-.37,1.48,1.48,0,0,1,.13-.35,1.6,1.6,0,0,1,.22-.31,1.1,1.1,0,0,1,.31-.25.93.93,0,0,1,.3-.11.38.38,0,0,1,.22.06.44.44,0,0,1,.13.21,1.22,1.22,0,0,1,.06.31v.57a2.38,2.38,0,0,1-.06.37,1.48,1.48,0,0,1-.13.35,1,1,0,0,1-.22.31,1.21,1.21,0,0,1-.3.25.68.68,0,0,1-.31.11.28.28,0,0,1-.22-.06.37.37,0,0,1-.13-.2,1,1,0,0,1,0-.31.62.62,0,0,0,0-.13v-.31A.66.66,0,0,0,212.68,236.72Zm1.09-.61c0-.15,0-.25-.11-.29s-.16,0-.27,0a.57.57,0,0,0-.27.28.94.94,0,0,0-.12.42v.55a.36.36,0,0,0,.12.29q.09.06.27,0a.81.81,0,0,0,.27-.28,1,1,0,0,0,.11-.43v-.54Z" style="fill:#455a64"></path><path d="M215.13,234.47c.19-.11.34-.14.45-.08s.16.21.16.45a1.23,1.23,0,0,1-.16.63,1.21,1.21,0,0,1-.45.45l-.39.22v.72a.19.19,0,0,1,0,.07.11.11,0,0,1,0,0l-.2.12a0,0,0,0,1,0,0,.07.07,0,0,1,0,0V235a.15.15,0,0,1,0-.07s0-.05,0-.06Zm-.39,1.27.37-.22a.54.54,0,0,0,.22-.2.49.49,0,0,0,.09-.3c0-.12,0-.18-.09-.2a.38.38,0,0,0-.22.06l-.37.22Z" style="fill:#455a64"></path><path d="M226.76,305.6h0s0,0,0,0v.19a.11.11,0,0,1,0,.05l0,.05-.84.48h0s0,0,0,0v-1.66a.14.14,0,0,1,0-.06l0,0,.15-.09h0s0,0,0,0V306Z" style="fill:#455a64"></path><path d="M227.9,305h0a.05.05,0,0,1,0,0v.18a.14.14,0,0,1,0,.06l0,0-.85.49h0s0,0,0,0v-1.66a.13.13,0,0,1,0-.06l0,0,.83-.48h0s0,0,0,0v.18a.13.13,0,0,1,0,.06.08.08,0,0,1,0,0l-.62.36v.41l.58-.34h0s0,0,0,0v.18a.13.13,0,0,1,0,.06l0,0-.58.34v.43Z" style="fill:#455a64"></path><path d="M229.07,302.79h0a.05.05,0,0,1,0,0V303l0,.05,0,.05-.62.35v.5l.58-.33h0s0,0,0,0v.18a.14.14,0,0,1,0,.06l0,0-.58.33v.59a.14.14,0,0,1,0,.06l0,0-.16.09h0s0,0,0,0v-1.66a.13.13,0,0,1,0-.06l0,0Z" style="fill:#455a64"></path><path d="M230.24,302.11h0a.06.06,0,0,1,0,0v.19a.13.13,0,0,1,0,.06l0,0-.35.2v1.41a.13.13,0,0,1,0,.06l0,0-.16.09h0a.05.05,0,0,1,0,0v-1.41l-.35.2h0a.05.05,0,0,1,0,0v-.18a.14.14,0,0,1,0-.06s0,0,0,0Z" style="fill:#455a64"></path><path d="M232.27,300.92c.16-.1.28-.12.37-.06s.12.16.12.34a1.13,1.13,0,0,1-.06.36,1.17,1.17,0,0,1-.19.3l.26.48a0,0,0,0,1,0,0,.43.43,0,0,0,0,.05l0,0-.17.09a0,0,0,0,1-.06,0l0,0-.25-.45-.26.15v.6a.14.14,0,0,1,0,.06l0,0-.16.09h0s0,0,0,0v-1.66a.13.13,0,0,1,0-.06s0,0,0,0Zm-.29,1,.28-.17a.5.5,0,0,0,.17-.15.35.35,0,0,0,.07-.23c0-.1,0-.15-.07-.16a.29.29,0,0,0-.17.06l-.28.16Z" style="fill:#455a64"></path><path d="M233.06,302.26h0a.05.05,0,0,1,0,0v-1.66a.14.14,0,0,1,0-.06l0,0,.16-.09h0s0,0,0,0v1.66a.13.13,0,0,1,0,.06l0,0Z" style="fill:#455a64"></path><path d="M233.52,300.86a1.54,1.54,0,0,1,0-.31,1,1,0,0,1,.11-.28,1.44,1.44,0,0,1,.18-.25,1,1,0,0,1,.25-.19.53.53,0,0,1,.28-.1.23.23,0,0,1,.17,0,.24.24,0,0,1,.09.11.35.35,0,0,1,0,.13.13.13,0,0,1,0,.06l0,0-.16.09h-.05l0,0-.05,0a.16.16,0,0,0-.1,0,.39.39,0,0,0-.14,0,.66.66,0,0,0-.23.24.75.75,0,0,0-.1.33v.42c0,.14,0,.23.1.26s.13,0,.23,0l.13-.1a.29.29,0,0,0,.1-.12.46.46,0,0,0,.07-.16.64.64,0,0,0,0-.2v0l-.24.13h0s0,0,0,0v-.18a.13.13,0,0,1,0-.06s0,0,0,0l.44-.26h0a.05.05,0,0,1,0,0v.29a1.54,1.54,0,0,1,0,.3,1,1,0,0,1-.11.29,1.44,1.44,0,0,1-.18.25,1,1,0,0,1-.26.2.66.66,0,0,1-.26.1.23.23,0,0,1-.17,0,.31.31,0,0,1-.11-.16.92.92,0,0,1,0-.26v-.46Z" style="fill:#455a64"></path><path d="M236,298.77h0s0,0,0,0v1.66a.13.13,0,0,1,0,.06.08.08,0,0,1,0,0l-.15.09h0a.05.05,0,0,1,0,0v-.68l-.58.34V301s0,0,0,.06,0,0,0,0l-.16.09s0,0,0,0,0,0,0,0v-1.67a.11.11,0,0,1,0-.05l0,0,.16-.09h0s0,0,0,0V300l.58-.34V299a.14.14,0,0,1,0-.06l0,0Z" style="fill:#455a64"></path><path d="M237.24,298.05h0l0,0v.19a.14.14,0,0,1,0,.06.08.08,0,0,1,0,0l-.34.2V300a.14.14,0,0,1,0,.06l0,0-.15.09h0s0,0,0,0v-1.41l-.35.2h0s0,0,0,0v-.18a.13.13,0,0,1,0-.06s0,0,0,0Z" style="fill:#455a64"></path><path d="M227.8,307.91l.33-1.41a.14.14,0,0,1,0-.06l0,0,.15-.09h0s0,0,0,0h0v0l-.44,1.87a.19.19,0,0,1,0,.08l-.05.05-.15.09h0l0-.05-.43-1.37h0a.13.13,0,0,1,0-.06s0,0,0,0l.15-.09h0l0,0Z" style="fill:#455a64"></path><path d="M228.51,306.89a1,1,0,0,1,0-.3,1.33,1.33,0,0,1,.1-.28,1.44,1.44,0,0,1,.18-.25,1.16,1.16,0,0,1,.24-.2.85.85,0,0,1,.25-.09.29.29,0,0,1,.17.05.38.38,0,0,1,.11.16.93.93,0,0,1,0,.25v.11s0,.08,0,.12,0,.08,0,.12v.11a1.54,1.54,0,0,1,0,.3,1,1,0,0,1-.11.28,1,1,0,0,1-.17.25,1,1,0,0,1-.25.19.45.45,0,0,1-.24.09.23.23,0,0,1-.18-.05.28.28,0,0,1-.1-.16.61.61,0,0,1,0-.24v-.46Zm.87-.5c0-.12,0-.2-.09-.23s-.13,0-.22,0a.52.52,0,0,0-.21.23.64.64,0,0,0-.09.34,1.55,1.55,0,0,0,0,.22,1.34,1.34,0,0,0,0,.21.27.27,0,0,0,.09.24s.12,0,.21,0a.52.52,0,0,0,.22-.22.64.64,0,0,0,.09-.34c0-.07,0-.14,0-.22S229.38,306.46,229.38,306.39Z" style="fill:#455a64"></path><path d="M230.79,306.37h0a.05.05,0,0,1,0,0v.19l0,0s0,0,0,0l-.84.49h0s0,0,0,0v-1.66a.13.13,0,0,1,0-.06.08.08,0,0,1,0,0l.16-.09a0,0,0,0,1,0,0,.05.05,0,0,1,0,0v1.41Z" style="fill:#455a64"></path><path d="M232.05,304.17h0s0,0,0,0v1.05a1.55,1.55,0,0,1,0,.31,1.36,1.36,0,0,1-.11.28,1,1,0,0,1-.17.25,1.55,1.55,0,0,1-.24.19.85.85,0,0,1-.25.09.26.26,0,0,1-.17-.05.32.32,0,0,1-.1-.16,1,1,0,0,1,0-.27v-1a.14.14,0,0,1,0-.06l0,0,.15-.09s0,0,0,0,0,0,0,0v1a.44.44,0,0,0,0,.17.1.1,0,0,0,.06.08.09.09,0,0,0,.09,0l.12-.05a.47.47,0,0,0,.12-.09l.09-.12a.76.76,0,0,0,.06-.16,1.11,1.11,0,0,0,0-.19v-1a.14.14,0,0,1,0-.06l0,0Z" style="fill:#455a64"></path><path d="M233,304.52l.37-1.06,0,0a.1.1,0,0,1,.05-.06l.14-.08h0a.05.05,0,0,1,0,0V305a.14.14,0,0,1,0,.06l0,0-.16.09h0s0,0,0,0v-1l-.25.72,0,.06a.12.12,0,0,1-.05.05l-.1.05s0,0,0,0l0,0-.25-.43v1a.13.13,0,0,1,0,.06l0,0-.16.09h0a.05.05,0,0,1,0,0V304a.14.14,0,0,1,0-.06l0,0,.13-.08h.06l0,0Z" style="fill:#455a64"></path><path d="M234.86,304h0s0,0,0,0v.18a.13.13,0,0,1,0,.06l0,0-.85.49s0,0,0,0,0,0,0,0v-1.66a.13.13,0,0,1,0-.06l0,0,.83-.48h0l0,0v.19a.14.14,0,0,1,0,.06.08.08,0,0,1,0,0l-.62.36v.41l.58-.34h0s0,0,0,0v.18a.13.13,0,0,1,0,.06.08.08,0,0,1,0,0l-.58.34v.43Z" style="fill:#455a64"></path><path d="M228.1,336.2a.69.69,0,0,1,.25-.09.24.24,0,0,1,.17,0,.38.38,0,0,1,.11.16,1,1,0,0,1,0,.27,2.41,2.41,0,0,1,0,.38,1.65,1.65,0,0,1,0,.32,1.45,1.45,0,0,1-.11.29,1.18,1.18,0,0,1-.17.24,1.55,1.55,0,0,1-.24.19l-.49.28a0,0,0,0,1,0,0s0,0,0,0v-1.66a.13.13,0,0,1,0-.06l0,0Zm.31.53a.59.59,0,0,0,0-.14.15.15,0,0,0-.06-.09.12.12,0,0,0-.1,0,.3.3,0,0,0-.14,0l-.26.15v1.16l.27-.16a.35.35,0,0,0,.13-.11.57.57,0,0,0,.1-.13.52.52,0,0,0,.06-.16,1,1,0,0,0,0-.17A2.41,2.41,0,0,0,228.41,336.73Z" style="fill:#455a64"></path><path d="M229.76,336.47a.14.14,0,0,1,0-.06l0,0,.16-.09h0s0,0,0,0a1,1,0,0,1,0,.24.87.87,0,0,1-.1.25,1.88,1.88,0,0,1-.18.24,1,1,0,0,1-.25.2.52.52,0,0,1-.24.08.23.23,0,0,1-.17,0,.31.31,0,0,1-.11-.16.71.71,0,0,1-.05-.26c0-.07,0-.14,0-.22s0-.15,0-.21a1.19,1.19,0,0,1,.05-.32,1,1,0,0,1,.11-.29.81.81,0,0,1,.17-.24.88.88,0,0,1,.24-.19.68.68,0,0,1,.25-.1.34.34,0,0,1,.18,0,.22.22,0,0,1,.1.13.58.58,0,0,1,0,.19.13.13,0,0,1,0,.06l0,0-.16.09h0s0,0,0,0a.94.94,0,0,0,0-.09l-.06-.05a.13.13,0,0,0-.09,0,.27.27,0,0,0-.13.05.35.35,0,0,0-.13.11.64.64,0,0,0-.1.13l-.06.16a.88.88,0,0,0,0,.16v.44a.59.59,0,0,0,0,.14.35.35,0,0,0,.06.09.16.16,0,0,0,.1,0,.27.27,0,0,0,.13,0l.13-.1a.94.94,0,0,0,.09-.12.34.34,0,0,0,.06-.12Z" style="fill:#455a64"></path><path d="M230.74,336.48h0s0,0,0,0v-1.66a.13.13,0,0,1,0-.06s0,0,0,0l.16-.09h0s0,0,0,0v1.66a.14.14,0,0,1,0,.06l0,0Z" style="fill:#455a64"></path><path d="M232.12,335.68h-.05l0,0-.54-.76V336a.14.14,0,0,1,0,.06s0,0,0,0l-.16.09a0,0,0,0,1,0,0s0,0,0,0v-1.66a.13.13,0,0,1,0-.06l0,0,.14-.08h.05s0,0,0,0l.54.76V334a.14.14,0,0,1,0-.06l0,0,.16-.09h0s0,0,0,0v1.66a.13.13,0,0,1,0,.06l0,0Z" style="fill:#455a64"></path><path d="M233.93,332.83h0s0,0,0,0v.19a.15.15,0,0,1,0,.06l0,.06-.28.55.16,0a.19.19,0,0,1,.12,0,.24.24,0,0,1,.08.11.9.9,0,0,1,0,.18.75.75,0,0,1,0,.26.66.66,0,0,1-.11.24.83.83,0,0,1-.16.21,1.46,1.46,0,0,1-.21.16.72.72,0,0,1-.24.09.28.28,0,0,1-.16,0,.18.18,0,0,1-.1-.09.28.28,0,0,1,0-.15.13.13,0,0,1,0-.06l0,0,.15-.09h0l0,0,0,0s0,0,0,0a.12.12,0,0,0,.08,0l.12-.05a.66.66,0,0,0,.19-.18.36.36,0,0,0,.07-.22c0-.07,0-.11-.07-.12a.28.28,0,0,0-.19.06l-.16.09s0,0,0,0,0,0,0,0V334a.13.13,0,0,1,0-.06l0-.06.27-.53-.53.3h0a.08.08,0,0,1,0,0v-.18a.14.14,0,0,1,0-.06.08.08,0,0,1,0,0Z" style="fill:#455a64"></path><path d="M234.59,334.23s0,0,0,0l-.39-1v0a.11.11,0,0,1,0-.05l0-.05.15-.08s0,0,0,0l0,0,.26.65.25-1,0,0a.12.12,0,0,1,.05-.05l.14-.08h0s0,0,0,0v0l-.39,1.41,0,.05a.1.1,0,0,1,0,.05l-.13.07Z" style="fill:#455a64"></path><polygon points="217.39 230.08 207.98 235.52 207.98 187.07 217.39 181.63 217.39 230.08" style="opacity:0.2"></polygon><polygon points="219.36 231.02 214.26 233.97 214.26 187.8 219.36 184.85 219.36 231.02" style="fill:#e0e0e0"></polygon><polygon points="214.26 233.97 219.36 231.02 219.36 184.85 214.26 187.8 219.23 185.09 218.97 230.8 214.26 233.97" style="fill:#fafafa"></polygon><polygon points="219.36 184.85 216.57 183.25 211.48 186.19 214.26 187.8 219.36 184.85" style="fill:#fafafa"></polygon><polygon points="211.48 186.19 214.26 187.8 214.26 233.97 211.48 232.36 211.48 186.19" style="fill:#f0f0f0"></polygon><polygon points="220.4 348.75 223.49 346.97 223.49 150.97 220.4 152.75 220.4 348.75" style="opacity:0.2"></polygon><polygon points="222.84 212.11 221.05 213.14 221.95 210.48 222.84 212.11" style="fill:#455a64"></polygon><polygon points="235.02 296.91 226.96 301.56 226.96 244.12 235.02 239.47 235.02 296.91" style="fill:#455a64"></polygon><polygon points="230.4 299.58 231.59 298.89 231.59 241.45 230.4 242.14 230.4 299.58" style="fill:#fafafa"></polygon><polygon points="230.4 275.14 226.96 277.13 226.96 299.8 227.65 300.2 231.08 298.21 231.08 275.54 230.4 275.14"></polygon><polygon points="227.65 277.52 231.08 275.54 231.08 298.21 227.65 300.2 227.65 277.52" style="fill:#263238"></polygon><path d="M228.27,286.11l2.19-1.27v-.28l-2.19,1.26Zm0,2.53,2.19-1.26v-.28l-2.19,1.26Zm0,7.61,2.19-1.26v-.28L228.27,296Zm0-5.07,2.19-1.26v-.29l-2.19,1.26Zm0,2.54,2.19-1.27v-.28l-2.19,1.26Zm0-12.69,2.19-1.26v-.28l-2.19,1.26Zm0,2.54,2.19-1.26V282l-2.19,1.26Zm0-5.36v.29l2.19-1.27V277Zm0,20.58,2.19-1.26v-.29l-2.19,1.26Zm0-1.28,2.19-1.26V296l-2.19,1.26Zm0-2.53,2.19-1.26v-.29l-2.19,1.26Zm0-5.08,2.19-1.26v-.28l-2.19,1.26Zm0,2.54,2.19-1.26v-.28l-2.19,1.26Zm0-12.68,2.19-1.26v-.29l-2.19,1.26Zm0,2.53,2.19-1.26v-.28L228.27,282Zm0,5.08,2.19-1.26v-.29l-2.19,1.26Zm0-2.54,2.19-1.26v-.28l-2.19,1.26Z" style="fill:#455a64"></path><polygon points="230.4 275.14 231.08 275.54 227.65 277.52 226.96 277.13 230.4 275.14" style="fill:#37474f"></polygon><polygon points="235.02 272.47 231.59 274.45 231.59 297.13 232.27 297.53 235.71 295.54 235.71 272.87 235.02 272.47"></polygon><polygon points="232.27 274.85 235.71 272.87 235.71 295.54 232.27 297.53 232.27 274.85" style="fill:#263238"></polygon><path d="M232.9,283.43l2.18-1.26v-.28l-2.18,1.26Zm0,2.54,2.18-1.26v-.29l-2.18,1.27Zm0,7.61,2.18-1.26V292l-2.18,1.27Zm0-5.07,2.18-1.27V287l-2.18,1.26Zm0,2.53,2.18-1.26v-.28l-2.18,1.26Zm0-12.68,2.18-1.26v-.29l-2.18,1.27Zm0,2.54,2.18-1.27v-.28l-2.18,1.26Zm0-5.36v.28l2.18-1.26v-.28Zm0,20.58,2.18-1.27v-.28l-2.18,1.26Zm0-1.28,2.18-1.26v-.28l-2.18,1.26Zm0-2.53,2.18-1.27v-.28L232.9,292Zm0-5.08,2.18-1.26v-.28L232.9,287Zm0,2.54,2.18-1.26v-.29l-2.18,1.26Zm0-12.68,2.18-1.27v-.28l-2.18,1.26Zm0,2.53,2.18-1.26v-.28l-2.18,1.26Zm0,5.08,2.18-1.27v-.28l-2.18,1.26Zm0-2.54,2.18-1.26v-.29l-2.18,1.26Z" style="fill:#455a64"></path><polygon points="235.02 272.47 231.59 274.45 232.27 274.85 235.71 272.87 235.02 272.47" style="fill:#37474f"></polygon><path d="M237.68,269.56v.57a2.33,2.33,0,0,1,0,.37,1.93,1.93,0,0,1-.11.34,1.21,1.21,0,0,1-.2.3,1,1,0,0,1-.3.23.65.65,0,0,1-.3.11.25.25,0,0,1-.19-.07.53.53,0,0,1-.12-.21,2.53,2.53,0,0,1,0-.32v-.56c0-.13,0-.25,0-.37a1.8,1.8,0,0,1,.12-.35,1.17,1.17,0,0,1,.19-.3,1.22,1.22,0,0,1,.3-.24.79.79,0,0,1,.3-.11.27.27,0,0,1,.2.07.52.52,0,0,1,.11.21A1.57,1.57,0,0,1,237.68,269.56Zm-1,1.11a.53.53,0,0,0,.08.31c.05.06.13.06.24,0a.55.55,0,0,0,.24-.26,1,1,0,0,0,.08-.41,3.65,3.65,0,0,0,0-.54.48.48,0,0,0-.08-.31c-.05-.06-.13-.05-.24,0a.53.53,0,0,0-.24.27,1.13,1.13,0,0,0-.08.4,2.44,2.44,0,0,0,0,.27A2.26,2.26,0,0,0,236.71,270.67Z" style="fill:#455a64"></path><path d="M236.53,253.77a.24.24,0,0,1,0-.08l0-.05.91-.52h0s0,0,0,0v.23a.11.11,0,0,1,0,.07l0,.05-.68.39,0,.43.13-.12.11-.07a.69.69,0,0,1,.25-.09.28.28,0,0,1,.2,0,.32.32,0,0,1,.13.15.79.79,0,0,1,0,.29,1.46,1.46,0,0,1,0,.38,1,1,0,0,1-.14.32,1,1,0,0,1-.2.26,1.88,1.88,0,0,1-.24.18.94.94,0,0,1-.29.12.33.33,0,0,1-.2,0,.3.3,0,0,1-.12-.13.72.72,0,0,1,0-.22.1.1,0,0,1,0-.07l0-.05.2-.11s0,0,0,0,0,0,0,0a.19.19,0,0,0,.05.1.09.09,0,0,0,.07,0,.15.15,0,0,0,.09,0l.11,0a.61.61,0,0,0,.22-.23.69.69,0,0,0,.08-.32.2.2,0,0,0-.08-.19.23.23,0,0,0-.22,0,.36.36,0,0,0-.12.08l-.07.07,0,.06a.12.12,0,0,1-.05,0l-.22.13a0,0,0,0,1-.05,0,.08.08,0,0,1,0,0Z" style="fill:#455a64"></path><path d="M235.75,239.82a.07.07,0,0,1,0,0,.24.24,0,0,1,0-.08l.53-.85,0-.06a.08.08,0,0,1,0,0l.19-.11h0s0,0,0,.05v2.08a.1.1,0,0,1,0,.07.1.1,0,0,1,0,0l-.2.12h0s0,0,0-.05v-1.59l-.34.55-.05.05h0Z" style="fill:#455a64"></path><path d="M238.23,238.51v.57a2.2,2.2,0,0,1,0,.37,1.35,1.35,0,0,1-.11.34,1,1,0,0,1-.2.3,1.37,1.37,0,0,1-.29.24.62.62,0,0,1-.3.1.24.24,0,0,1-.2-.07.38.38,0,0,1-.11-.21,1.47,1.47,0,0,1,0-.32,2.35,2.35,0,0,1,0-.28,2.53,2.53,0,0,1,0-.28,2.33,2.33,0,0,1,0-.37,1.29,1.29,0,0,1,.31-.65,1.22,1.22,0,0,1,.3-.24.7.7,0,0,1,.29-.11.26.26,0,0,1,.2.07.42.42,0,0,1,.11.22A1.43,1.43,0,0,1,238.23,238.51Zm-1,1.12a.54.54,0,0,0,.09.31c0,.05.12.05.24,0a.55.55,0,0,0,.24-.26,1.49,1.49,0,0,0,.08-.41v-.54a.65.65,0,0,0-.08-.31c0-.06-.13-.05-.24,0a.52.52,0,0,0-.24.27,1.18,1.18,0,0,0-.09.4v.55Z" style="fill:#455a64"></path><path d="M237.22,267a.53.53,0,0,1-.21.41c-.12.06-.21,0-.21-.16a.51.51,0,0,1,.21-.41C237.12,266.77,237.22,266.84,237.22,267Z" style="fill:#455a64"></path><path d="M237.22,264.73a.5.5,0,0,1-.21.4c-.12.07-.21,0-.21-.16a.5.5,0,0,1,.21-.4C237.12,264.51,237.22,264.58,237.22,264.73Z" style="fill:#455a64"></path><path d="M237.22,262.47a.53.53,0,0,1-.21.4c-.12.07-.21,0-.21-.16a.5.5,0,0,1,.21-.4C237.12,262.24,237.22,262.31,237.22,262.47Z" style="fill:#455a64"></path><path d="M237.22,260.21a.53.53,0,0,1-.21.4c-.12.07-.21,0-.21-.16a.5.5,0,0,1,.21-.4C237.12,260,237.22,260.05,237.22,260.21Z" style="fill:#455a64"></path><path d="M237.22,258a.53.53,0,0,1-.21.4c-.12.06-.21,0-.21-.16a.47.47,0,0,1,.21-.4C237.12,257.72,237.22,257.79,237.22,258Z" style="fill:#455a64"></path><path d="M237.22,251.51a.53.53,0,0,1-.21.41c-.12.06-.21,0-.21-.16a.47.47,0,0,1,.21-.4C237.12,251.29,237.22,251.36,237.22,251.51Z" style="fill:#455a64"></path><path d="M237.22,249.25a.5.5,0,0,1-.21.4c-.12.07-.21,0-.21-.16a.5.5,0,0,1,.21-.4C237.12,249,237.22,249.1,237.22,249.25Z" style="fill:#455a64"></path><path d="M237.22,247a.53.53,0,0,1-.21.4c-.12.07-.21,0-.21-.16a.5.5,0,0,1,.21-.4C237.12,246.76,237.22,246.84,237.22,247Z" style="fill:#455a64"></path><path d="M237.22,244.73a.53.53,0,0,1-.21.4c-.12.07-.21,0-.21-.16a.5.5,0,0,1,.21-.4C237.12,244.5,237.22,244.57,237.22,244.73Z" style="fill:#455a64"></path><path d="M237.22,242.47a.53.53,0,0,1-.21.4c-.12.06-.21,0-.21-.16a.47.47,0,0,1,.21-.4C237.12,242.24,237.22,242.31,237.22,242.47Z" style="fill:#455a64"></path><path d="M225.9,276.36v.57a2.21,2.21,0,0,1,0,.37,1.93,1.93,0,0,1-.11.34,1.21,1.21,0,0,1-.5.54.75.75,0,0,1-.3.1.25.25,0,0,1-.19-.07.43.43,0,0,1-.12-.21,2.53,2.53,0,0,1,0-.32v-.56c0-.13,0-.25,0-.37a1.45,1.45,0,0,1,.12-.35,1.17,1.17,0,0,1,.19-.3,1.22,1.22,0,0,1,.3-.24.79.79,0,0,1,.3-.11.27.27,0,0,1,.2.07.5.5,0,0,1,.11.22A1.39,1.39,0,0,1,225.9,276.36Zm-1,1.11a.53.53,0,0,0,.08.31c.05.06.13.06.24,0a.55.55,0,0,0,.24-.26,1,1,0,0,0,.08-.41,3.65,3.65,0,0,0,0-.54.48.48,0,0,0-.08-.31c-.05-.06-.13-.05-.24,0a.57.57,0,0,0-.24.27,1.13,1.13,0,0,0-.08.4,2.53,2.53,0,0,0,0,.28A2.09,2.09,0,0,0,224.93,277.47Z" style="fill:#455a64"></path><path d="M224.75,260.57a.24.24,0,0,1,0-.08l0-.05.91-.52h0a.06.06,0,0,1,0,.05v.23a.25.25,0,0,1,0,.07l0,.05-.68.39,0,.43.13-.12.11-.06a.57.57,0,0,1,.25-.1.34.34,0,0,1,.2,0,.32.32,0,0,1,.13.15.79.79,0,0,1,0,.29,1.6,1.6,0,0,1,0,.39,1.09,1.09,0,0,1-.14.31.86.86,0,0,1-.2.26l-.24.18a.74.74,0,0,1-.29.12.32.32,0,0,1-.2,0,.3.3,0,0,1-.12-.13.67.67,0,0,1,0-.22.1.1,0,0,1,0-.07l0-.05.2-.11h0s0,0,0,0a.19.19,0,0,0,.05.1.09.09,0,0,0,.07,0,.15.15,0,0,0,.09,0l.11-.05a.61.61,0,0,0,.22-.23.69.69,0,0,0,.08-.32.21.21,0,0,0-.08-.19.23.23,0,0,0-.22,0l-.12.08-.07.07,0,.06-.05.05-.22.13h-.05a.08.08,0,0,1,0-.05Z" style="fill:#455a64"></path><path d="M224,246.63a.07.07,0,0,1,0-.06.14.14,0,0,1,0-.07l.53-.86,0-.06.05,0,.19-.11s0,0,0,0,0,0,0,0v2.08a.1.1,0,0,1,0,.07.07.07,0,0,1,0,.05l-.2.12h0s0,0,0-.05v-1.59l-.35.55a.11.11,0,0,1,0,0h0Z" style="fill:#455a64"></path><path d="M226.44,245.31a.53.53,0,0,1,0,.13v.31a.57.57,0,0,1,0,.13,1.5,1.5,0,0,1,0,.37,1.23,1.23,0,0,1-.11.34,1.21,1.21,0,0,1-.2.3,1.37,1.37,0,0,1-.29.24.62.62,0,0,1-.3.1.27.27,0,0,1-.2-.06.42.42,0,0,1-.11-.22,1.47,1.47,0,0,1,0-.32,2.26,2.26,0,0,1,0-.27,2.62,2.62,0,0,1,0-.29,2.33,2.33,0,0,1,0-.37,1.23,1.23,0,0,1,.11-.34,1.49,1.49,0,0,1,.2-.31,1.22,1.22,0,0,1,.3-.24.56.56,0,0,1,.29-.1.27.27,0,0,1,.2.06.46.46,0,0,1,.11.22A1,1,0,0,1,226.44,245.31Zm-1,1.12a.54.54,0,0,0,.09.31c0,.06.12,0,.24,0a.62.62,0,0,0,.24-.27,1.49,1.49,0,0,0,.08-.41v-.54a.65.65,0,0,0-.08-.31s-.13,0-.24,0a.52.52,0,0,0-.24.27,1.18,1.18,0,0,0-.09.41v.54Z" style="fill:#455a64"></path><path d="M225.43,273.8a.5.5,0,0,1-.21.4c-.11.06-.21,0-.21-.16a.5.5,0,0,1,.21-.4C225.34,273.57,225.43,273.64,225.43,273.8Z" style="fill:#455a64"></path><path d="M225.43,271.53a.51.51,0,0,1-.21.41c-.11.06-.21,0-.21-.16a.5.5,0,0,1,.21-.4C225.34,271.31,225.43,271.38,225.43,271.53Z" style="fill:#455a64"></path><path d="M225.43,269.27a.47.47,0,0,1-.21.4c-.11.07-.21,0-.21-.16a.53.53,0,0,1,.21-.4C225.34,269.05,225.43,269.12,225.43,269.27Z" style="fill:#455a64"></path><path d="M225.43,267a.5.5,0,0,1-.21.4c-.11.07-.21,0-.21-.16a.53.53,0,0,1,.21-.4C225.34,266.78,225.43,266.86,225.43,267Z" style="fill:#455a64"></path><path d="M225.43,264.75a.5.5,0,0,1-.21.4c-.11.07-.21,0-.21-.16a.53.53,0,0,1,.21-.4C225.34,264.52,225.43,264.59,225.43,264.75Z" style="fill:#455a64"></path><path d="M225.43,258.32a.5.5,0,0,1-.21.4c-.11.07-.21,0-.21-.16a.5.5,0,0,1,.21-.4C225.34,258.09,225.43,258.16,225.43,258.32Z" style="fill:#455a64"></path><path d="M225.43,256.05a.51.51,0,0,1-.21.41c-.11.06-.21,0-.21-.16a.5.5,0,0,1,.21-.4C225.34,255.83,225.43,255.9,225.43,256.05Z" style="fill:#455a64"></path><path d="M225.43,253.79a.47.47,0,0,1-.21.4c-.11.07-.21,0-.21-.15a.53.53,0,0,1,.21-.41C225.34,253.57,225.43,253.64,225.43,253.79Z" style="fill:#455a64"></path><path d="M225.43,251.53a.49.49,0,0,1-.21.4c-.11.07-.21,0-.21-.16a.53.53,0,0,1,.21-.4C225.34,251.3,225.43,251.38,225.43,251.53Z" style="fill:#455a64"></path><path d="M225.43,249.27a.5.5,0,0,1-.21.4c-.11.07-.21,0-.21-.16a.53.53,0,0,1,.21-.4C225.34,249,225.43,249.11,225.43,249.27Z" style="fill:#455a64"></path><path d="M232.21,265.39l2.19-1.26v-.29l-2.19,1.26Zm0-2.54,2.19-1.26v-.29l-2.19,1.27Zm0,5.07,2.19-1.26v-.28l-2.19,1.26Zm0,2.54,2.19-1.26v-.29l-2.19,1.27Zm0,2.54,2.19-1.26v-.29l-2.19,1.26Zm0-12.69,2.19-1.26v-.28L232.21,260Zm0-10.14,2.19-1.26v-.29l-2.19,1.26Zm0-2.54,2.19-1.26v-.28l-2.19,1.26Zm0-5.36v.29l2.19-1.26V241Zm0,2.82,2.19-1.26v-.28l-2.19,1.26Zm0,10.15L234.4,254v-.28L232.21,255Zm0,2.54,2.19-1.26v-.29l-2.19,1.26Zm0-5.08,2.19-1.26v-.28l-2.19,1.26Z" style="fill:#fafafa"></path><path d="M227.58,268.06l2.19-1.26v-.29l-2.19,1.27Zm0-2.54,2.19-1.26V264l-2.19,1.26Zm0,5.08,2.19-1.27v-.28l-2.19,1.26Zm0,2.53,2.19-1.26v-.28l-2.19,1.26Zm0,2.54,2.19-1.26v-.29l-2.19,1.27Zm0-12.68,2.19-1.27v-.28l-2.19,1.26Zm0-10.15,2.19-1.26v-.29l-2.19,1.27Zm0-2.54,2.19-1.26v-.28L227.58,250Zm0-5.35v.28l2.19-1.26v-.29Zm0,2.82,2.19-1.27v-.28l-2.19,1.26Zm0,10.14,2.19-1.26v-.28l-2.19,1.26Zm0,2.54,2.19-1.26v-.29l-2.19,1.27Zm0-5.07,2.19-1.26v-.29l-2.19,1.26Z" style="fill:#fafafa"></path><path d="M233.31,328.08A5.55,5.55,0,0,1,231,332.5c-1.28.74-2.31-.05-2.31-1.75a5.54,5.54,0,0,1,2.31-4.42C232.27,325.59,233.31,326.37,233.31,328.08Z" style="fill:#263238"></path><polygon points="222.84 159.74 221.05 160.77 221.95 158.11 222.84 159.74" style="fill:#455a64"></polygon><polygon points="222.84 161.63 221.05 162.67 221.95 160.01 222.84 161.63" style="fill:#455a64"></polygon><polygon points="221.05 176.6 222.84 175.57 221.95 178.22 221.05 176.6" style="fill:#455a64"></polygon><polygon points="221.05 174.7 222.84 173.67 221.95 176.33 221.05 174.7" style="fill:#455a64"></polygon><path d="M160.33,202.22V295c0,1-.67,1.35-1.5.88l-32.19-18.6a3.28,3.28,0,0,1-1.51-2.6V181.9c0-1,.67-1.35,1.51-.88l.62.37,31.57,18.21A3.36,3.36,0,0,1,160.33,202.22Z"></path><path d="M160.33,202.22v92L128.78,276a3.39,3.39,0,0,1-1.52-2.62v-92l31.57,18.21A3.36,3.36,0,0,1,160.33,202.22Z" style="fill:#F94892"></path><path d="M133,184.69l-5.74-3.3v92a3.39,3.39,0,0,0,1.52,2.62l4.22,2.43Z" style="fill:#fafafa"></path><path d="M143.36,196.8h0A7.58,7.58,0,0,1,147.1,198c5.59,3.22,10.14,11.73,10.14,19v59c0,4.7-1.92,7.61-5,7.61a7.65,7.65,0,0,1-3.76-1.16c-5.61-3.24-10.17-11.76-10.17-19l0-59c0-4.7,1.93-7.63,5-7.63m0-1.39c-3.78,0-6.42,3.36-6.42,9l0,59c0,7.69,4.86,16.74,10.86,20.2a9,9,0,0,0,4.46,1.36c3.78,0,6.41-3.35,6.41-9v-59c0-7.69-4.85-16.73-10.84-20.18a9,9,0,0,0-4.43-1.34Z" style="opacity:0.2"></path><path d="M145.12,225.6l5.29,3.05a6.65,6.65,0,0,1,3,5.22V253c0,1.93-1.35,2.71-3,1.75l-5.29-3.06a6.67,6.67,0,0,1-3-5.22V227.34C142.11,225.42,143.46,224.64,145.12,225.6Z"></path><path d="M141,206.81c0-4.31,3-6.06,6.77-3.9a15,15,0,0,1,6.76,11.72c0,4.31-3,6.06-6.76,3.9A15,15,0,0,1,141,206.81Z" style="opacity:0.30000000000000004"></path><path d="M141,265.92c0-4.32,3-6.07,6.77-3.91a15,15,0,0,1,6.76,11.72c0,4.31-3,6.06-6.76,3.91A15,15,0,0,1,141,265.92Z" style="opacity:0.30000000000000004"></path><path d="M152.57,215.76a7.56,7.56,0,0,0,1.73.73,7.07,7.07,0,0,0,.23-1.86,15,15,0,0,0-6.76-11.72,7.14,7.14,0,0,0-1.73-.73,7,7,0,0,0-.24,1.86A15,15,0,0,0,152.57,215.76Z" style="opacity:0.30000000000000004"></path><path d="M152.57,274.86a7.14,7.14,0,0,0,1.73.73,7.07,7.07,0,0,0,.23-1.86A15,15,0,0,0,147.77,262a7.56,7.56,0,0,0-1.73-.73,7,7,0,0,0-.24,1.86A15,15,0,0,0,152.57,274.86Z" style="opacity:0.30000000000000004"></path><path d="M149.55,207.15a1.17,1.17,0,0,1,1.18.11,3.72,3.72,0,0,1,1.68,2.91,1.17,1.17,0,0,1-.49,1.08l-5.26,3a1.19,1.19,0,0,1-1.19-.11,3.73,3.73,0,0,1-1.67-2.91,1.17,1.17,0,0,1,.49-1.08Z" style="fill:#263238"></path><path d="M147.15,213.21c0,1.07-.75,1.5-1.68,1a3.73,3.73,0,0,1-1.67-2.91c0-1.07.75-1.5,1.67-1A3.68,3.68,0,0,1,147.15,213.21Z" style="fill:#37474f"></path><path d="M149.56,265.77a1.19,1.19,0,0,1,1.19.12,3.7,3.7,0,0,1,1.67,2.9,1.17,1.17,0,0,1-.49,1.09l-5.26,3a1.18,1.18,0,0,1-1.18-.12,3.7,3.7,0,0,1-1.67-2.9,1.17,1.17,0,0,1,.49-1.09Z" style="fill:#263238"></path><path d="M147.17,271.83c0,1.07-.75,1.5-1.68,1a3.7,3.7,0,0,1-1.67-2.9c0-1.07.75-1.51,1.67-1A3.68,3.68,0,0,1,147.17,271.83Z" style="fill:#37474f"></path></g><g id="freepik--plug--inject-61"><g id="freepik--plug--inject-61"><path d="M169.58,132a3.52,3.52,0,0,0,2.08,2.9,11.1,11.1,0,0,0,10,0,3.52,3.52,0,0,0,2.09-2.92V108.75l-14.21,0Z" style="fill:#F94892"></path><path d="M178.76,135.85a9,9,0,0,0,2.94-1,3.52,3.52,0,0,0,2.09-2.92V108.75h-5Z" style="opacity:0.1"></path><path d="M181.7,111.65a11.1,11.1,0,0,1-10,0,3.06,3.06,0,0,1,0-5.8,11.1,11.1,0,0,1,10,0,3.06,3.06,0,0,1,0,5.8Z" style="fill:#F94892"></path><path d="M181.7,111.65a11.1,11.1,0,0,1-10,0,3.06,3.06,0,0,1,0-5.8,11.1,11.1,0,0,1,10,0,3.06,3.06,0,0,1,0,5.8Z" style="fill:#fff;opacity:0.2"></path><path d="M171.33,107.77A2.69,2.69,0,0,0,172.9,110a8.43,8.43,0,0,0,7.58,0,2.68,2.68,0,0,0,1.57-2.21V96.46l-10.72,0Z" style="fill:#37474f"></path><path d="M178.26,110.71a6.77,6.77,0,0,0,2.22-.75,2.68,2.68,0,0,0,1.57-2.21V96.46h-3.79Z" style="opacity:0.1"></path><path d="M180.48,98.65a8.37,8.37,0,0,1-7.58,0,2.69,2.69,0,0,1-1.57-2.17,2.66,2.66,0,0,1,1.57-2.21,8.43,8.43,0,0,1,7.58,0,2.31,2.31,0,0,1,0,4.38Z" style="fill:#455a64"></path></g><path d="M197.54,70c-2-1.18-4.66-1-7.37.59l-5.73,3.32c-5.13,3-9.14,9.25-9.14,14.32v8.23h0a.7.7,0,0,0,.41.56,2.2,2.2,0,0,0,2,0,.69.69,0,0,0,.4-.57h0V88.23c0-4,3.55-9.49,7.75-11.91L191.57,73c1.8-1.05,3.43-1.26,4.57-.6s1.78,2.18,1.78,4.26v41.71L200.7,120V76.67C200.7,73.55,199.58,71.18,197.54,70Z" style="fill:#37474f"></path></g></g><g id="freepik--device-3--inject-61"><g id="freepik--Cassette--inject-61"><polygon points="383.97 312.21 372.87 323.49 298.78 280.71 318.31 274.31 383.97 312.21" style="fill:#F94892"></polygon><polygon points="383.97 312.21 372.87 323.49 298.78 280.71 318.31 274.31 383.97 312.21" style="fill:#fff;opacity:0.8"></polygon><polygon points="298.78 280.71 298.78 282.56 372.87 325.33 372.87 323.49 298.78 280.71" style="fill:#F94892"></polygon><polygon points="298.78 280.71 298.78 282.56 372.87 325.33 372.87 323.49 298.78 280.71" style="fill:#fff;opacity:0.6000000000000001"></polygon><polygon points="383.97 312.21 383.97 314.06 372.87 325.33 372.87 323.49 383.97 312.21" style="fill:#F94892"></polygon><polygon points="383.97 312.21 383.97 314.06 372.87 325.33 372.87 323.49 383.97 312.21" style="fill:#fff;opacity:0.5"></polygon><path d="M453.85,281a2,2,0,0,0-1.19-1.59l-101-58.31a5.46,5.46,0,0,0-4.89-.19L285,256.6a1,1,0,0,0-.2.13l-.17.14a.67.67,0,0,0-.14.15,1.09,1.09,0,0,0-.28.47,1.07,1.07,0,0,0-.06.32v0c0,.7,0,13.05,0,13.51a2,2,0,0,0,1.2,1.61l101,58.3a5.46,5.46,0,0,0,4.89.2L453,295.76a1.46,1.46,0,0,0,.84-1.21C453.87,294,453.85,281.47,453.85,281Zm-65.76-3.83a14.64,14.64,0,0,1,13.3,0c3.67,2.11,3.67,5.55,0,7.68a14.76,14.76,0,0,1-13.3,0C384.41,282.73,384.41,279.29,388.09,277.18Zm-45.83-26.47a14.76,14.76,0,0,1,13.3,0c3.68,2.13,3.68,5.57,0,7.69a14.7,14.7,0,0,1-13.3,0C338.59,256.28,338.59,252.84,342.26,250.71Z" style="fill:#F94892"></path><path d="M453.85,281a2,2,0,0,0-1.19-1.59l-101-58.31a5.46,5.46,0,0,0-4.89-.19L285,256.6a1,1,0,0,0-.2.13l-.17.14a.67.67,0,0,0-.14.15,1.09,1.09,0,0,0-.28.47,1.07,1.07,0,0,0-.06.32v0c0,.7,0,13.05,0,13.51a2,2,0,0,0,1.2,1.61l101,58.3a5.46,5.46,0,0,0,4.89.2L453,295.76a1.46,1.46,0,0,0,.84-1.21C453.87,294,453.85,281.47,453.85,281Zm-65.76-3.83a14.64,14.64,0,0,1,13.3,0c3.67,2.11,3.67,5.55,0,7.68a14.76,14.76,0,0,1-13.3,0C384.41,282.73,384.41,279.29,388.09,277.18Zm-45.83-26.47a14.76,14.76,0,0,1,13.3,0c3.68,2.13,3.68,5.57,0,7.69a14.7,14.7,0,0,1-13.3,0C338.59,256.28,338.59,252.84,342.26,250.71Z" style="fill:#fff;opacity:0.6000000000000001"></path><path d="M453.85,294.55a1.46,1.46,0,0,1-.84,1.21L391.2,331.45a4.55,4.55,0,0,1-2.27.48V318.4a4.43,4.43,0,0,0,2.27-.48L453,282.24a1.47,1.47,0,0,0,.84-1.23C453.85,281.47,453.87,294,453.85,294.55Z" style="fill:#F94892;opacity:0.5"></path><path d="M452.66,279.42l-101-58.31a5.46,5.46,0,0,0-4.89-.19L285,256.6a1,1,0,0,0-.2.13l-.17.14a.67.67,0,0,0-.14.15,1.09,1.09,0,0,0-.28.47,1.07,1.07,0,0,0-.06.32v0a2,2,0,0,0,1.2,1.59l101,58.3a5.46,5.46,0,0,0,4.89.2L453,282.24a1.47,1.47,0,0,0,.84-1.23A2,2,0,0,0,452.66,279.42Zm-97.1-21a14.7,14.7,0,0,1-13.3,0c-3.67-2.12-3.67-5.56,0-7.69a14.76,14.76,0,0,1,13.3,0C359.24,252.84,359.24,256.28,355.56,258.4Zm45.83,26.46a14.76,14.76,0,0,1-13.3,0c-3.68-2.13-3.68-5.57,0-7.68a14.64,14.64,0,0,1,13.3,0C405.06,279.29,405.06,282.73,401.39,284.86Z" style="fill:#F94892"></path><path d="M452.66,279.42l-101-58.31a5.46,5.46,0,0,0-4.89-.19L285,256.6a1,1,0,0,0-.2.13l-.17.14a.67.67,0,0,0-.14.15,1.09,1.09,0,0,0-.28.47,1.07,1.07,0,0,0-.06.32v0a2,2,0,0,0,1.2,1.59l101,58.3a5.46,5.46,0,0,0,4.89.2L453,282.24a1.47,1.47,0,0,0,.84-1.23A2,2,0,0,0,452.66,279.42Zm-64.57-2.24a14.64,14.64,0,0,1,13.3,0c2.08,1.2,3,2.82,2.7,4.38a3.7,3.7,0,0,1-.66,1.52c-.09.13-.17.24-.27.36a6.2,6.2,0,0,1-.91.84,9.9,9.9,0,0,1-.86.58,14.76,14.76,0,0,1-13.3,0l-.11-.07-.6-.39-.15-.12a5.73,5.73,0,0,1-.91-.84,4,4,0,0,1-.27-.34v0a3.86,3.86,0,0,1-.67-1.52C385.1,280,386,278.38,388.09,277.18Zm-45.83-26.47a14.76,14.76,0,0,1,13.3,0c2.09,1.21,3,2.83,2.71,4.4a3.7,3.7,0,0,1-.66,1.52l-.27.35a5.7,5.7,0,0,1-.91.84,6.26,6.26,0,0,1-.87.58,14.7,14.7,0,0,1-13.3,0l-.1-.06a5.35,5.35,0,0,1-.61-.4l-.14-.11a5.34,5.34,0,0,1-.91-.85,2.06,2.06,0,0,1-.27-.35,3.47,3.47,0,0,1-.67-1.52C339.28,253.54,340.19,251.92,342.26,250.71Z" style="fill:#fff;opacity:0.75"></path><path d="M442,280.43l-92.09-53.17a3.24,3.24,0,0,0-2.93-.12l-42.13,24.32c-.75.43-.66,1.19.21,1.69l92.09,53.17a3.25,3.25,0,0,0,2.92.12l42.14-24.32C443,281.68,442.89,280.93,442,280.43Zm-36.82,5.95-1.19.68c-4.39,2.54-12.07,2.22-17.16-.71L339.68,259.1c-5.09-2.93-5.64-7.37-1.24-9.91l1.18-.67c4.41-2.55,12.09-2.22,17.16.7L404,276.47C409.05,279.41,409.61,283.83,405.21,286.38Z" style="fill:#455a64"></path><path d="M293.75,258.09a1.36,1.36,0,0,0-.72-.85,3.9,3.9,0,0,0-3.55,0,1.39,1.39,0,0,0-.72.85,1.17,1.17,0,0,1,.72-1.21,4,4,0,0,1,3.55,0A1.17,1.17,0,0,1,293.75,258.09Z" style="fill:#F94892"></path><path d="M293.75,258.09a1.32,1.32,0,0,1-.72.84,3.84,3.84,0,0,1-3.55,0,1.35,1.35,0,0,1-.72-.84,1.39,1.39,0,0,1,.72-.85,3.9,3.9,0,0,1,3.55,0A1.36,1.36,0,0,1,293.75,258.09Z" style="fill:#455a64"></path><path d="M292.47,257.9h-1v-.51a.19.19,0,0,0-.19-.19.18.18,0,0,0-.19.19v.51h-1a.18.18,0,0,0-.18.19.19.19,0,0,0,.18.19h1v.51a.19.19,0,0,0,.19.19.2.2,0,0,0,.19-.19v-.51h1a.19.19,0,0,0,.19-.19A.18.18,0,0,0,292.47,257.9Z" style="fill:#37474f"></path><path d="M351.57,224.71a1.43,1.43,0,0,0-.72-.85,4,4,0,0,0-3.56,0,1.46,1.46,0,0,0-.72.85,1.16,1.16,0,0,1,.72-1.2,3.92,3.92,0,0,1,3.56,0A1.16,1.16,0,0,1,351.57,224.71Z" style="fill:#F94892"></path><path d="M351.57,224.71a1.37,1.37,0,0,1-.72.85,3.92,3.92,0,0,1-3.56,0,1.41,1.41,0,0,1-.72-.85,1.46,1.46,0,0,1,.72-.85,4,4,0,0,1,3.56,0A1.43,1.43,0,0,1,351.57,224.71Z" style="fill:#455a64"></path><path d="M350.29,224.52h-1V224a.19.19,0,0,0-.19-.19.2.2,0,0,0-.19.19v.51h-1a.19.19,0,0,0-.19.19.18.18,0,0,0,.19.19h1v.51a.19.19,0,0,0,.19.19.18.18,0,0,0,.19-.19v-.51h1a.19.19,0,0,0,.19-.19A.2.2,0,0,0,350.29,224.52Z" style="fill:#37474f"></path><path d="M391.42,314.52a1.43,1.43,0,0,0-.72-.85,4,4,0,0,0-3.56,0,1.4,1.4,0,0,0-.71.85c-.1-.42.14-.87.71-1.2a3.92,3.92,0,0,1,3.56,0A1.16,1.16,0,0,1,391.42,314.52Z" style="fill:#F94892"></path><path d="M391.42,314.52a1.37,1.37,0,0,1-.72.85,3.92,3.92,0,0,1-3.56,0,1.35,1.35,0,0,1-.71-.85,1.4,1.4,0,0,1,.71-.85,4,4,0,0,1,3.56,0A1.43,1.43,0,0,1,391.42,314.52Z" style="fill:#455a64"></path><path d="M390.14,314.33h-1v-.51a.19.19,0,0,0-.19-.19.2.2,0,0,0-.19.19v.51h-1a.2.2,0,0,0-.19.19.19.19,0,0,0,.19.19h1v.51a.19.19,0,0,0,.19.19.18.18,0,0,0,.19-.19v-.51h1a.19.19,0,0,0,.19-.19A.2.2,0,0,0,390.14,314.33Z" style="fill:#37474f"></path><path d="M449.23,281.15a1.35,1.35,0,0,0-.72-.86,4,4,0,0,0-3.55,0,1.38,1.38,0,0,0-.72.86,1.17,1.17,0,0,1,.72-1.21,4,4,0,0,1,3.55,0A1.16,1.16,0,0,1,449.23,281.15Z" style="fill:#F94892"></path><path d="M449.23,281.15a1.32,1.32,0,0,1-.72.84,3.9,3.9,0,0,1-3.55,0,1.35,1.35,0,0,1-.72-.84,1.38,1.38,0,0,1,.72-.86,4,4,0,0,1,3.55,0A1.35,1.35,0,0,1,449.23,281.15Z" style="fill:#455a64"></path><path d="M448,281h-1v-.51a.19.19,0,0,0-.19-.19.18.18,0,0,0-.19.19V281h-1a.18.18,0,0,0-.19.19.19.19,0,0,0,.19.19h1v.51a.19.19,0,0,0,.19.19.2.2,0,0,0,.19-.19v-.51h1a.19.19,0,0,0,.19-.19A.18.18,0,0,0,448,281Z" style="fill:#37474f"></path><polygon points="390.94 271.59 378.42 278.82 374.45 276.53 373.34 275.88 352.72 263.98 365.23 256.76 381.98 266.42 382.81 266.89 390.94 271.59" style="fill:#fafafa"></polygon><path d="M390.57,271.38a22.37,22.37,0,0,0-8,2.61,10.25,10.25,0,0,0-4.52,4.62l.37.21,12.51-7.23Z" style="fill:#37474f"></path><path d="M382.81,266.89c-1.16,3.49-3.95,6.84-8.36,9.64l-1.11-.64L352.72,264l12.51-7.22L382,266.41Z" style="fill:#263238"></path><path d="M366.25,271.79a39.38,39.38,0,0,0,7.07-3.14,26.56,26.56,0,0,0,5.44-4.09l-13.53-7.81L352.72,264Z" style="fill:#37474f"></path><path d="M404.09,281.56a6.79,6.79,0,0,0-2.39-2.17,15.41,15.41,0,0,0-13.92,0,6.82,6.82,0,0,0-2.4,2.17c-.28-1.56.63-3.18,2.71-4.38a14.64,14.64,0,0,1,13.3,0C403.47,278.38,404.38,280,404.09,281.56Z" style="fill:#37474f"></path><path d="M402.58,284a1.81,1.81,0,0,1-.33.29,9.9,9.9,0,0,1-.86.58,3.59,3.59,0,0,1-.34.17,15.72,15.72,0,0,0-12.63,0l-.33-.17-.11-.07-.6-.39-.15-.12a2.28,2.28,0,0,1-.34-.29,8.14,8.14,0,0,1,1.2-.83,14.64,14.64,0,0,1,13.3,0A8,8,0,0,1,402.58,284Z" style="fill:#37474f"></path><path d="M401.7,279.39a15.41,15.41,0,0,0-13.92,0,6.82,6.82,0,0,0-2.4,2.17h0a3.7,3.7,0,0,0,.67,1.51v0l.27.34a6.3,6.3,0,0,0,.92.84,6.12,6.12,0,0,1,.88-.66l1.08.62,1.19-.7-1-.57a13.7,13.7,0,0,1,5.34-1c.44,0,.88,0,1.32.07l-.33.72,1.63.26.35-.74a11.23,11.23,0,0,1,3.37,1.2,6.76,6.76,0,0,1,1.17.84,7.42,7.42,0,0,0,.91-.84c-.15-.14-.32-.26-.47-.4h0l.68-.1c0,.05,0,.09,0,.14a3.55,3.55,0,0,0,.66-1.51h0A6.79,6.79,0,0,0,401.7,279.39Z" style="fill:#e0e0e0"></path><path d="M401.7,279.39a15.41,15.41,0,0,0-13.92,0,6.82,6.82,0,0,0-2.4,2.17h0a3.7,3.7,0,0,0,.67,1.51v0l.27.34a6.3,6.3,0,0,0,.92.84,6.12,6.12,0,0,1,.88-.66l1.08.62,1.19-.7-1-.57a13.7,13.7,0,0,1,5.34-1c.44,0,.88,0,1.32.07l-.33.72,1.63.26.35-.74a11.23,11.23,0,0,1,3.37,1.2,6.76,6.76,0,0,1,1.17.84,7.42,7.42,0,0,0,.91-.84c-.15-.14-.32-.26-.47-.4h0l.68-.1c0,.05,0,.09,0,.14a3.55,3.55,0,0,0,.66-1.51h0A6.79,6.79,0,0,0,401.7,279.39Z" style="opacity:0.1"></path><path d="M401.7,279.39a15.41,15.41,0,0,0-13.92,0,6.82,6.82,0,0,0-2.4,2.17h0a3.7,3.7,0,0,0,.67,1.51,4.45,4.45,0,0,1,2.07-2.44l1.08.62,1.19-.7-1-.57a13.7,13.7,0,0,1,5.34-1c.44,0,.88,0,1.32.07l-.33.72,1.63.26.35-.74a11.23,11.23,0,0,1,3.37,1.2A6,6,0,0,1,402.9,282l-1.47.23-.16,0,.44.95,1-.16.68-.1c0,.05,0,.09,0,.14a3.55,3.55,0,0,0,.66-1.51h0A6.79,6.79,0,0,0,401.7,279.39Z" style="fill:#f5f5f5"></path><polygon points="388.12 280.64 389.2 281.26 389.2 284.24 388.12 283.62 388.12 280.64" style="fill:#ebebeb"></polygon><polygon points="390.39 280.56 390.39 283.54 389.2 284.24 389.2 281.26 390.39 280.56" style="fill:#e0e0e0"></polygon><polygon points="395.73 279.74 395.73 282.72 397.36 282.98 397.36 280 395.73 279.74" style="fill:#ebebeb"></polygon><polygon points="397.71 279.26 397.71 282.24 397.36 282.98 397.36 280 397.71 279.26" style="fill:#ebebeb"></polygon><polygon points="397.71 279.26 397.71 282.24 397.36 282.98 397.36 280 397.71 279.26" style="fill:#e0e0e0"></polygon><path d="M401.27,282.25v2.67c.15-.07.3-.18.44-.26V283.2Z" style="fill:#ebebeb"></path><path d="M403.39,282.94v.21a6.17,6.17,0,0,1-1.68,1.51V283.2Z" style="fill:#e0e0e0"></path><polygon points="403.39 283.15 403.39 282.94 403.43 283.08 403.39 283.15" style="fill:#e0e0e0"></polygon><polygon points="403.39 283.15 403.39 282.94 403.43 283.08 403.39 283.15" style="opacity:0.1"></polygon><path d="M358.27,255.1a6.9,6.9,0,0,0-2.39-2.18,15.41,15.41,0,0,0-13.92,0,6.85,6.85,0,0,0-2.4,2.18c-.28-1.56.63-3.19,2.71-4.39a14.68,14.68,0,0,1,13.29,0C357.65,251.91,358.55,253.54,358.27,255.1Z" style="fill:#37474f"></path><path d="M356.76,257.53a3,3,0,0,1-.33.29,8.74,8.74,0,0,1-.87.57,2.57,2.57,0,0,1-.33.18,15.72,15.72,0,0,0-12.63,0l-.33-.18-.11-.06c-.21-.14-.41-.26-.6-.4l-.15-.11a3.07,3.07,0,0,1-.34-.29,8.16,8.16,0,0,1,1.2-.84,14.68,14.68,0,0,1,13.29,0A7.66,7.66,0,0,1,356.76,257.53Z" style="fill:#37474f"></path><path d="M355.88,252.92a15.41,15.41,0,0,0-13.92,0,6.85,6.85,0,0,0-2.4,2.18h0a3.5,3.5,0,0,0,.67,1.51h0c.08.12.18.23.27.35a6.3,6.3,0,0,0,.92.84,7,7,0,0,1,.88-.67l1.07.63,1.2-.7-1-.57a13.71,13.71,0,0,1,5.34-1c.43,0,.88,0,1.32.08l-.33.72,1.63.26.35-.74a11,11,0,0,1,3.37,1.2,6.76,6.76,0,0,1,1.17.84,7.42,7.42,0,0,0,.91-.84c-.15-.14-.32-.27-.47-.4h0l.67-.1a.78.78,0,0,1,.05.14,3.6,3.6,0,0,0,.66-1.51h0A6.9,6.9,0,0,0,355.88,252.92Z" style="fill:#e0e0e0"></path><path d="M355.88,252.92a15.41,15.41,0,0,0-13.92,0,6.85,6.85,0,0,0-2.4,2.18h0a3.5,3.5,0,0,0,.67,1.51h0c.08.12.18.23.27.35a6.3,6.3,0,0,0,.92.84,7,7,0,0,1,.88-.67l1.07.63,1.2-.7-1-.57a13.71,13.71,0,0,1,5.34-1c.43,0,.88,0,1.32.08l-.33.72,1.63.26.35-.74a11,11,0,0,1,3.37,1.2,6.76,6.76,0,0,1,1.17.84,7.42,7.42,0,0,0,.91-.84c-.15-.14-.32-.27-.47-.4h0l.67-.1a.78.78,0,0,1,.05.14,3.6,3.6,0,0,0,.66-1.51h0A6.9,6.9,0,0,0,355.88,252.92Z" style="opacity:0.1"></path><path d="M355.88,252.92a15.41,15.41,0,0,0-13.92,0,6.85,6.85,0,0,0-2.4,2.18h0a3.5,3.5,0,0,0,.67,1.51,4.5,4.5,0,0,1,2.07-2.45l1.07.63,1.2-.7-1-.57a13.71,13.71,0,0,1,5.34-1.05c.43,0,.88,0,1.32.08l-.33.72,1.63.26.35-.74a11,11,0,0,1,3.37,1.2,5.88,5.88,0,0,1,1.82,1.54l-1.47.23-.16,0,.44,1,1-.16.67-.1a.78.78,0,0,1,.05.14,3.6,3.6,0,0,0,.66-1.51h0A6.9,6.9,0,0,0,355.88,252.92Z" style="fill:#f5f5f5"></path><polygon points="342.3 254.17 343.37 254.8 343.37 257.78 342.3 257.15 342.3 254.17" style="fill:#ebebeb"></polygon><polygon points="344.57 254.1 344.57 257.08 343.37 257.78 343.37 254.8 344.57 254.1" style="fill:#e0e0e0"></polygon><polygon points="349.91 253.28 349.91 256.26 351.54 256.52 351.54 253.54 349.91 253.28" style="fill:#ebebeb"></polygon><polygon points="351.89 252.8 351.89 255.78 351.54 256.52 351.54 253.54 351.89 252.8" style="fill:#ebebeb"></polygon><polygon points="351.89 252.8 351.89 255.78 351.54 256.52 351.54 253.54 351.89 252.8" style="fill:#e0e0e0"></polygon><path d="M355.45,255.79v2.67c.15-.08.3-.18.44-.27v-1.45Z" style="fill:#ebebeb"></path><path d="M357.56,256.48v.2a5.83,5.83,0,0,1-1.67,1.51v-1.45Z" style="fill:#e0e0e0"></path><polygon points="357.56 256.68 357.56 256.48 357.61 256.62 357.56 256.68" style="fill:#e0e0e0"></polygon><polygon points="357.56 256.68 357.56 256.48 357.61 256.62 357.56 256.68" style="opacity:0.1"></polygon><polygon points="383.97 296.84 372.87 308.11 298.78 265.34 318.31 258.93 383.97 296.84" style="fill:#F94892"></polygon><polygon points="383.97 296.84 372.87 308.11 298.78 265.34 318.31 258.93 383.97 296.84" style="fill:#fff;opacity:0.8"></polygon><polygon points="298.78 265.34 298.78 267.19 372.87 309.96 372.87 308.11 298.78 265.34" style="fill:#F94892"></polygon><polygon points="298.78 265.34 298.78 267.19 372.87 309.96 372.87 308.11 298.78 265.34" style="fill:#fff;opacity:0.6000000000000001"></polygon><polygon points="383.97 296.84 383.97 298.69 372.87 309.96 372.87 308.11 383.97 296.84" style="fill:#F94892"></polygon><polygon points="383.97 296.84 383.97 298.69 372.87 309.96 372.87 308.11 383.97 296.84" style="fill:#fff;opacity:0.5"></polygon><g style="opacity:0.5"><path d="M330.29,275.31l-3.36,1.94a1.31,1.31,0,0,1-1.17-.05l-3.19-1.84c-.34-.2-.38-.5-.08-.67l3.36-1.94a1.29,1.29,0,0,1,1.16,0l3.19,1.85C330.55,274.84,330.59,275.14,330.29,275.31Z" style="fill:#F94892"></path><path d="M316.47,268.64c1.27.73,1.27,1.92,0,2.66a5.1,5.1,0,0,1-4.6,0c-1.27-.74-1.27-1.93,0-2.66A5,5,0,0,1,316.47,268.64Z" style="fill:#F94892"></path><path d="M355.59,289.92l-3.36,1.94c-.3.17-.26.47.09.67l3.19,1.85a1.29,1.29,0,0,0,1.16.05l3.36-1.95c.3-.17.26-.47-.08-.67L356.76,290A1.31,1.31,0,0,0,355.59,289.92Z" style="fill:#F94892"></path><path d="M367.15,297.9a5,5,0,0,0-4.6,0c-1.27.73-1.27,1.92,0,2.66a5.1,5.1,0,0,0,4.6,0C368.42,299.82,368.42,298.63,367.15,297.9Z" style="fill:#F94892"></path></g><g style="opacity:0.5"><path d="M326.93,277.25l2.07-1.19-2-1.15a1.29,1.29,0,0,0-1.16-.05l-2.07,1.2,2,1.14A1.31,1.31,0,0,0,326.93,277.25Z" style="fill:#F94892"></path><path d="M311.87,270.75a4.39,4.39,0,0,0-.39.27,3,3,0,0,0,.39.28,5.1,5.1,0,0,0,4.6,0,3,3,0,0,0,.39-.28,4.39,4.39,0,0,0-.39-.27A5.1,5.1,0,0,0,311.87,270.75Z" style="fill:#F94892"></path><path d="M356.67,294.43l2.07-1.2-2-1.15a1.31,1.31,0,0,0-1.17,0l-2.06,1.19,2,1.15A1.29,1.29,0,0,0,356.67,294.43Z" style="fill:#F94892"></path><path d="M362.55,300a4.39,4.39,0,0,0-.39.27,3,3,0,0,0,.39.28,5.1,5.1,0,0,0,4.6,0,3,3,0,0,0,.39-.28,4.39,4.39,0,0,0-.39-.27A5.1,5.1,0,0,0,362.55,300Z" style="fill:#F94892"></path></g><path d="M347.86,281.35a1.36,1.36,0,0,0-.72-.85,3.9,3.9,0,0,0-3.55,0,1.39,1.39,0,0,0-.72.85,1.17,1.17,0,0,1,.72-1.21,4,4,0,0,1,3.55,0C347.72,280.47,348,280.92,347.86,281.35Z" style="fill:#F94892"></path><path d="M347.86,281.35a1.32,1.32,0,0,1-.72.84,3.84,3.84,0,0,1-3.55,0,1.35,1.35,0,0,1-.72-.84,1.39,1.39,0,0,1,.72-.85,3.9,3.9,0,0,1,3.55,0A1.36,1.36,0,0,1,347.86,281.35Z" style="fill:#455a64"></path><path d="M346.58,281.16h-1v-.51a.18.18,0,0,0-.19-.19.19.19,0,0,0-.19.19v.51h-1a.18.18,0,0,0-.19.19.19.19,0,0,0,.19.19h1v.51a.2.2,0,0,0,.19.19.19.19,0,0,0,.19-.19v-.51h1a.19.19,0,0,0,.19-.19A.18.18,0,0,0,346.58,281.16Z" style="fill:#37474f"></path><polygon points="327.68 285.61 327.68 295.65 343.97 305.06 343.97 295.02 327.68 285.61" style="fill:#F94892;opacity:0.5"></polygon><polygon points="343.97 295.02 336.37 290.63 327.68 295.65 343.97 305.06 343.97 295.02" style="fill:#F94892;opacity:0.5"></polygon><polygon points="299.72 269.47 299.72 279.51 316.02 288.92 316.02 278.88 299.72 269.47" style="fill:#F94892;opacity:0.5"></polygon><polygon points="316.02 278.88 308.41 274.49 299.72 279.51 316.02 288.92 316.02 278.88" style="fill:#F94892;opacity:0.5"></polygon><polygon points="355.65 301.76 355.65 311.8 371.95 321.21 371.95 311.17 355.65 301.76" style="fill:#F94892;opacity:0.5"></polygon><polygon points="371.95 311.17 364.35 306.78 355.65 311.8 371.95 321.21 371.95 311.17" style="fill:#F94892;opacity:0.5"></polygon><polygon points="352.04 299.67 347.56 297.08 347.56 307.13 352.04 309.71 352.04 299.67" style="fill:#F94892;opacity:0.5"></polygon><polygon points="352.04 304.54 347.56 307.13 352.04 309.71 352.04 304.54" style="fill:#F94892;opacity:0.5"></polygon><polygon points="324.09 283.54 319.61 280.95 319.61 290.99 324.09 293.58 324.09 283.54" style="fill:#F94892;opacity:0.5"></polygon><polygon points="324.09 288.4 319.61 290.99 324.09 293.58 324.09 288.4" style="fill:#F94892;opacity:0.5"></polygon><path d="M299.72,276.9,316,286.3v-4.82l-16.29-9.41Zm19.89,11.48,4.48,2.59v-4.83l-4.48-2.59Zm8.06,4.65L344,302.45v-4.83l-16.31-9.41Zm28,11.33v4.82L372,318.6v-4.83Zm-8.09.16,4.48,2.59v-4.83l-4.48-2.59Z" style="fill:#37474f"></path><path d="M316,284.84v-3.36l-1.94-1.12Zm3.6-1.29v4.83l4.48,2.59v-1.89l-1.7-3.92Zm-14.22-8.21,2.79,6.44,4.28,2.47-2.79-6.44ZM334,291.86l2.8,6.44,4.28,2.47-2.8-6.45Zm30.65,17.68,2.79,6.44,4.28,2.47L368.92,312Zm-12.89-2.6.29.17v-4.83L349,300.49Zm5.52-1.65-1.62-.93v4.82l4.41,2.55Z" style="fill:#455a64"></path></g></g><g id="freepik--speech-bubble--inject-61"><g id="freepik--speech-bubble--inject-61"><g id="freepik--speech-bubble--inject-61"><path d="M302.29,187.65l-4.31-8.1,3.46-10v-6.12l-10.6,6.12v6.12l4.56,7.9a.67.67,0,0,0,.31.27h0Z" style="fill:#F94892"></path><path d="M302.29,187.65l-4.31-8.1,3.46-10v-6.12l-10.6,6.12v6.12l4.56,7.9a.67.67,0,0,0,.31.27h0Z" style="opacity:0.2"></path><path d="M327.6,111.08a7,7,0,0,0-3.18-5.5l-2.59-1.5a7,7,0,0,0-6.35,0L275.8,127a7,7,0,0,0-3.18,5.51V179.9a7,7,0,0,0,3.18,5.51l2.58,1.49a7.05,7.05,0,0,0,6.36,0l12.76-7.37,4.55,7.88a.68.68,0,0,0,1.23-.12l4.8-13.88L324.42,164a7,7,0,0,0,3.18-5.5Z" style="fill:#F94892"></path><path d="M272.62,179.9a7,7,0,0,0,3.18,5.51l2.58,1.49a7.1,7.1,0,0,0,5.82.26c-1.5.56-2.64-.28-2.64-2.09V137.7a6.53,6.53,0,0,1,.93-3.13l-8.94-5.16a6.4,6.4,0,0,0-.93,3.13Z" style="opacity:0.2"></path><path d="M327.49,110.18c-.37-1.35-1.6-1.78-3.07-.94l-39.68,23a6.18,6.18,0,0,0-2.24,2.37l-8.94-5.16A6.34,6.34,0,0,1,275.8,127l39.67-23a7.12,7.12,0,0,1,6.36,0l2.59,1.5A7,7,0,0,1,327.49,110.18Z" style="fill:#fff;opacity:0.30000000000000004"></path></g><path id="freepik--musical-note--inject-61" d="M296.21,138.77l0,20.85A2.42,2.42,0,0,0,295,160c-2,1.12-3.55,4.47-3.55,7.49S293,172,295,170.87s3.54-4.48,3.55-7.49l.05-18.69,12.21-11.92h0l0,18.51a2.45,2.45,0,0,0-1.18.34c-1.95,1.12-3.54,4.47-3.54,7.48s1.57,4.55,3.53,3.42,3.54-4.47,3.55-7.48h0l0-30.9Z" style="fill:#fafafa"></path></g></g><g id="freepik--musical-notes--inject-61"><g id="freepik--music-notes--inject-61"><path d="M252,71.3c1.91,1,3.81,2,5.71,3.07l4.48,2.42c.15.07,2,1.15,2,1.15a4.3,4.3,0,0,0-1.29,1.45,3.64,3.64,0,1,0,4.93-1.48l-11-5.92a4.83,4.83,0,0,1,.47-1.91,10.09,10.09,0,0,1,1.49-2.19,18.69,18.69,0,0,0,2.14-2.8,4.35,4.35,0,0,0,.51-3.4,4.58,4.58,0,0,1-1.18,1.67c-1.23,1.11-3.24,1.46-4.68,2.29C253.46,66.88,252.6,68.75,252,71.3Z" style="fill:#ebebeb"></path><path d="M441.19,200.57l4.22,11.92a3.3,3.3,0,1,0,3.12,2.19L444.75,204l9.76-6.63h0l3.76,10.58a3.3,3.3,0,1,0,3.12,2.19h0l-6.28-17.67Z" style="fill:#ebebeb"></path><path d="M449.12,69.31c1.35,1.69,2.66,3.42,4,5.13l3.12,4,1.37,1.86a4.41,4.41,0,0,0-1.78.81,3.64,3.64,0,1,0,5.11.64l-7.63-9.86a4.74,4.74,0,0,1,1.2-1.56A10,10,0,0,1,456.74,69a18.57,18.57,0,0,0,3.1-1.69,4.36,4.36,0,0,0,1.84-2.9,4.57,4.57,0,0,1-1.76,1.05c-1.57.5-3.56,0-5.2.19C452.27,65.87,450.71,67.23,449.12,69.31Z" style="fill:#ebebeb"></path><path d="M403.79,137.41c-1.36,3.46-2.82,6.91-4.23,10.36l-3.33,8.13c-.1.25-1.6,3.65-1.6,3.65a7.62,7.62,0,0,0-2.73-2,6.28,6.28,0,1,0,3.45,8.18l8.15-19.9a8,8,0,0,1,3.36.45,17.61,17.61,0,0,1,4,2.15,31.57,31.57,0,0,0,5.2,3.17,7.61,7.61,0,0,0,5.93.26,7.88,7.88,0,0,1-3.09-1.73c-2.12-1.91-3.09-5.3-4.77-7.61C411.64,139.13,408.27,138,403.79,137.41Z" style="fill:#ebebeb"></path><path d="M43.55,95.35a3.65,3.65,0,1,0,7.14-1.48L48.18,81.64A4.73,4.73,0,0,1,50,80.77a9.71,9.71,0,0,1,2.63-.26,19,19,0,0,0,3.54-.15,4.42,4.42,0,0,0,2.94-1.8,4.6,4.6,0,0,1-2.05.17c-1.64-.24-3.21-1.56-4.76-2.13-2.32-.85-4.32-.31-6.67.86.47,2.11.88,4.24,1.31,6.36.35,1.67.69,3.33,1,5l.41,2.28A4.51,4.51,0,0,0,46.38,91,3.65,3.65,0,0,0,43.55,95.35Z" style="fill:#ebebeb"></path><path d="M35.76,198a4.68,4.68,0,0,0,8.62,3.67l6.31-14.75,16.52,2.44h0L61,204a4.74,4.74,0,0,0-1.33-.88,4.69,4.69,0,1,0,2.48,6.15h0l10.4-24.42-22.27-4.9-7,16.46a4.89,4.89,0,0,0-1.33-.88A4.68,4.68,0,0,0,35.76,198Z" style="fill:#ebebeb"></path><path d="M347.16,69.29A4.68,4.68,0,0,0,355.78,73l6.32-14.75,16.51,2.44h0l-6.22,14.63a4.66,4.66,0,0,0-7.47,1.6,4.68,4.68,0,1,0,8.62,3.67h0l10.39-24.42-22.26-4.9-7,16.46a4.83,4.83,0,0,0-1.32-.88A4.69,4.69,0,0,0,347.16,69.29Z" style="fill:#ebebeb"></path><path d="M138.38,33.65a14.94,14.94,0,0,1,3.78-.07,25.32,25.32,0,0,0,5.07.2,6.27,6.27,0,0,0,4.4-2.22,6.63,6.63,0,0,1-2.94,0C146.38,31,144.3,29,142.14,28c-3.21-1.49-6.12-.95-9.61.44.42,3.07.75,6.16,1.13,9.24.29,2.42.59,4.84.88,7.25,0,.23.32,3.3.32,3.3a6.35,6.35,0,0,0-2.78-.3,5.22,5.22,0,1,0,5.83,4.54l-2.16-17.76A6.77,6.77,0,0,1,138.38,33.65Z" style="fill:#ebebeb"></path></g></g></svg>